<svg width="24" height="22" viewBox="0 0 24 22" fill="none" xmlns="http://www.w3.org/2000/svg">
<g clip-path="url(#clip0)">
<path d="M5.314 13.5917L5.31376 13.5913C5.09001 13.1926 5.06862 12.6853 5.31248 12.2436V0.364926C5.31248 0.103506 5.51804 -0.115 5.77986 -0.115H15.8403C16.1021 -0.115 16.3077 0.103506 16.3077 0.364926V11.5194C16.8274 11.4809 17.2332 11.6156 17.546 11.8426C17.8813 12.0859 18.1013 12.4289 18.2447 12.7554M5.314 13.5917L18.1394 12.8016M5.314 13.5917L9.59928 21.1551M5.314 13.5917L9.59928 21.1551M18.2447 12.7554L18.1394 12.8016M18.2447 12.7554C18.2447 12.7554 18.2447 12.7554 18.2447 12.7554L18.1394 12.8016M18.2447 12.7554C18.2723 12.8183 18.2865 12.8867 18.286 12.9555M18.1394 12.8016C18.1605 12.8497 18.1714 12.9021 18.171 12.9549M18.286 12.9555L18.171 12.9549M18.286 12.9555L18.286 12.9556M18.286 12.9555C18.286 12.9556 18.286 12.9556 18.286 12.9556M18.171 12.9549L18.1498 16.6408C18.1498 16.7823 18.1244 16.9317 18.0741 17.0824L16.7632 21.1552H16.884M18.171 12.9549L18.286 12.9556M18.286 12.9556L18.2648 16.6408H18.15L18.2648 16.6415L18.2648 16.6412C18.2648 16.796 18.237 16.9573 18.1834 17.1182L18.1836 17.1176L18.0742 17.0824L18.1832 17.1188L16.884 21.1552M16.884 21.1552H22.9048C23.1666 21.1552 23.3721 21.3737 23.3721 21.6351C23.3721 21.8965 23.1666 22.115 22.9048 22.115H22.8741H22.8432H22.8122H22.7809H22.7496H22.718H22.6863H22.6544H22.6224H22.5902H22.5578H22.5253H22.4926H22.4597H22.4267H22.3935H22.3602H22.3267H22.293H22.2592H22.2252H22.1911H22.1568H22.1224H22.0878H22.053H22.0181H21.9831H21.9479H21.9125H21.877H21.8414H21.8056H21.7696H21.7335H21.6973H21.6609H21.6244H21.5877H21.5508H21.5139H21.4768H21.4395H21.4021H21.3646H21.3269H21.2891H21.2512H21.2131H21.1749H21.1365H21.098H21.0594H21.0206H20.9817H20.9427H20.9035H20.8642H20.8248H20.7853H20.7456H20.7058H20.6658H20.6258H20.5856H20.5453H20.5048H20.4642H20.4235H20.3827H20.3418H20.3007H20.2596H20.2183H20.1768H20.1353H20.0937H20.0519H20.01H19.968H19.9259H19.8836H19.8413H19.7988H19.7562H19.7136H19.6708H19.6278H19.5848H19.5417H19.4985H19.4551H19.4117H19.3681H19.3244H19.2807H19.2368H19.1928H19.1487H19.1046H19.0603H19.0159H18.9714H18.9268H18.8822H18.8374H18.7925H18.7475H18.7025H18.6573H18.612H18.5667H18.5212H18.4757H18.4301H18.3843H18.3385H18.2926H18.2466H18.2006H18.1544H18.1081H18.0618H18.0154H17.9689H17.9223H17.8756H17.8288H17.782H17.7351H17.6881H17.641H17.5938H17.5466H17.4992H17.4518H17.4044H17.3568H17.3092H17.2615H17.2137H17.1659H17.118H17.07H17.0219H16.9738H16.9256H16.8773H16.829H16.7806H16.7321H16.6836H16.635H16.5863H16.5375H16.4888H16.4399H16.391H16.342H16.293H16.2438H16.1947H16.1455H16.0962H16.0469H15.9975H15.948H15.8985H15.849H15.7994H15.7497H15.7H15.6502H15.6004H15.5505H15.5006H15.4506H15.4006H15.3506H15.3005H15.2503H15.2001H15.1499H15.0996H15.0492H14.9989H14.9485H14.898H14.8475H14.797H14.7464H14.6958H14.6451H14.5944H14.5437H14.4929H14.4422H14.3913H14.3405H14.2896H14.2386H14.1877H14.1367H14.0857H14.0346H13.9835H13.9324H13.8813H13.8301H13.779H13.7277H13.6765H13.6252H13.574H13.5227H13.4713H13.42H13.3686H13.3172H13.2658H13.2144H13.163H13.1115H13.06H13.0085H12.957H12.9055H12.854H12.8024H12.7509H12.6993H12.6477H12.5961H12.5445H12.4929H12.4413H12.3897H12.3381H12.2864H12.2348H12.1831H12.1315H12.0798H12.0282H11.9765H11.9249H11.8732H11.8216H11.7699H11.7183H11.6666H11.615H11.5633H11.5117H11.46H11.4084H11.3568H11.3052H11.2536H11.202H11.1504H11.0988H11.0473H10.9957H10.9442H10.8926H10.8411H10.7896H10.7381H10.6867H10.6352H10.5838H10.5324H10.481H10.4296H10.3782H10.3269H10.2756H10.2243H10.173H10.1217H10.0705H10.0193H9.96814H9.91699H9.86587H9.81477H9.7637H9.71266H9.66165H9.61068H9.55973H9.50881H9.45793H9.40708H9.35626H9.30548H9.25473H9.20402H9.15335H9.10271H9.05211H9.00155H8.95102H8.90054H8.8501H8.7997H8.74934H8.69903H8.64876H8.59853H8.54835H8.49821H8.44812H8.39808H8.34808H8.29813H8.24824H8.19839H8.14859H8.09884H8.04915H7.9995H7.94991H7.90038H7.8509H7.80147H7.7521H7.70279H7.65353H7.60433H7.55519H7.50611H7.45709H7.40813H7.35924H7.3104H7.26163H7.21292H7.16428H7.1157H7.06718H7.01874H6.97036H6.92204H6.8738H6.82562H6.77752H6.72948H6.68152H6.63363H6.58581H6.53806H6.49039H6.4428H6.39527H6.34783H6.30046H6.25317H6.20596H6.15882H6.11177H6.06479H6.0179H5.97109H5.92436H5.87771H5.83115H5.78467H5.73828H5.69197H5.64575H5.59961H5.55357H5.50761H5.46174H5.41596H5.37028H5.32468H5.27918H5.23376H5.18845H5.14322H5.09809H5.05306H5.00812H4.96328H4.91854H4.87389H4.82935H4.7849H4.74055H4.69631H4.65217H4.60813H4.56419H4.52036H4.47663H4.433H4.38948H4.34607H4.30277H4.25957H4.21649H4.17351H4.13064H4.08788H4.04524H4.0027H3.96028H3.91797H3.87578H3.8337H3.79174H3.74989H3.70816H3.66655H3.62506H3.58368H3.54243H3.5013H3.46028H3.41939H3.37862H3.33798H3.29746H3.25706H3.21679H3.17665H3.13663H3.09674H3.05697H3.01734H2.97783H2.93846H2.89921H2.8601H2.82112H2.78228H2.74356H2.70498H2.66654H2.62823H2.59006H2.55203H2.51413H2.47637H2.43875H2.40127H2.36393H2.32674H2.28968H2.25277H2.216H2.17937H2.14289H2.10656H2.07037H2.03432H1.99843H1.96268H1.92709H1.89164H1.85634H1.82119H1.7862H1.75136H1.71667H1.68213H1.64775H1.61352H1.57945H1.54554H1.51178H1.47818H1.44474H1.41146H1.37834H1.34538H1.31258H1.27994H1.24747H1.21516H1.18301H1.15103H1.11922H1.08757H1.05608H1.02477H0.993621H0.962644H0.931835H0.901198H0.870731H0.840436H0.810314H0.780365H0.75059H0.720989H0.691564H0.662314H0.633241H0.604346H0.575628H0.54709H0.51873H0.490551H0.462553H0.434736H0.407101H0.379649H0.352381C0.0905619 22.115 -0.115 21.8965 -0.115 21.6351C-0.115 21.3736 0.0905693 21.1552 0.352381 21.1551H9.59928M16.884 21.1552L9.59928 21.1551M9.27472 6.38629L9.27472 6.3859C9.27972 5.53014 9.9528 4.82756 10.7851 4.82756H10.7859C11.654 4.83318 12.3087 5.55731 12.299 6.40809V6.40805L12.184 6.4069L12.299 6.40822L9.27472 6.38629ZM9.27472 6.38629L9.26831 9.05169C9.01598 8.72913 8.87237 8.32747 8.87237 7.89689V5.26223C8.87237 4.21809 9.73041 3.36656 10.7872 3.36656C11.8562 3.36656 12.7018 4.22519 12.7018 5.26223V7.89689C12.7018 8.33704 12.544 8.75571 12.2721 9.0872L9.27472 6.38629ZM10.6072 21.0263L10.6129 21.0264L10.6269 21.0268L10.629 21.0268L10.6296 21.0268L10.6297 21.0268H10.6297L10.6305 21.0268C10.6305 21.0268 10.6305 21.0269 10.6305 21.0269L10.6751 21.0279L15.9002 21.1531L17.2973 16.8127L17.2976 16.8116C17.3207 16.7425 17.3301 16.6858 17.3301 16.6387V16.6381L17.3506 13.0604C17.2279 12.8141 17.0804 12.6547 16.9054 12.5649C16.7454 12.4827 16.5508 12.4526 16.3093 12.481V14.4364C16.3093 14.6978 16.1037 14.9163 15.8419 14.9163C15.5801 14.9163 15.3745 14.6978 15.3745 14.4364V12.2627C15.3599 12.2227 15.3495 12.1805 15.3406 12.1409C15.3359 12.1195 15.3318 12.0999 15.3278 12.0807C15.322 12.0533 15.3165 12.0267 15.3094 11.997C15.2867 11.9016 15.2577 11.8197 15.2042 11.7558C15.1112 11.6449 14.8987 11.5404 14.3206 11.6566V13.5925C14.3206 13.8539 14.115 14.0724 13.8532 14.0724C13.5914 14.0724 13.3858 13.8539 13.3858 13.5925V11.3767C13.311 11.221 13.1511 11.1417 12.9315 11.1292C12.725 11.1175 12.4866 11.168 12.2789 11.2535V13.2785C12.2789 13.5399 12.0733 13.7585 11.8115 13.7585C11.5499 13.7585 11.3444 13.5402 11.3441 13.279M10.6072 21.0263L9.7514 15.6769C9.94687 15.6049 10.0733 15.4192 10.0733 15.2054L10.1883 15.2057L10.1883 15.2054L10.2095 6.39046C10.2095 6.39037 10.2095 6.39027 10.2095 6.39017C10.2116 6.05392 10.4739 5.78769 10.7895 5.78745M10.6072 21.0263L6.12313 13.1111C6.12308 13.111 6.12303 13.1109 6.12298 13.1108C6.03737 12.9578 6.06185 12.757 6.184 12.6296C6.34467 12.4674 6.58881 12.4865 6.7143 12.6204L9.12511 15.5941C9.12527 15.5943 9.12543 15.5945 9.12558 15.5947C9.28617 15.798 9.54842 15.8756 9.79157 15.7846L10.6072 21.0263ZM11.3441 13.279C11.3441 13.2789 11.3441 13.2787 11.3441 13.2785H11.4591L11.3442 13.2795C11.3442 13.2793 11.3441 13.2792 11.3441 13.279ZM11.3441 13.279C11.3213 10.4621 11.3243 10.2069 11.3386 9.01255C11.3453 8.45892 11.3543 7.70348 11.3643 6.39751L11.3643 6.39706C11.3682 6.06074 11.1091 5.79013 10.7895 5.78745M10.7895 5.78745C10.7897 5.78745 10.7898 5.78745 10.79 5.78745V5.67245L10.7891 5.78744C10.7892 5.78744 10.7894 5.78744 10.7895 5.78745ZM16.847 21.2702H16.7262H16.847ZM16.3077 11.6347C16.27 11.6377 16.2317 11.6416 16.1927 11.6464V11.5306L16.3077 11.6347ZM7.41715 11.9883L7.41729 11.9882L7.413 11.9835C7.11543 11.6555 6.68382 11.4988 6.24717 11.5721V0.844852H15.3729V10.7598C15.0257 10.6287 14.6013 10.6176 14.0897 10.7252C13.7756 10.3158 13.1885 10.0632 12.4658 10.1933C13.1886 9.66405 13.6366 8.81444 13.6366 7.89685V5.2622C13.6366 3.69801 12.3746 2.40668 10.7872 2.40668C9.21564 2.40668 7.93757 3.68787 7.93757 5.2622V7.89685C7.93757 8.89301 8.44177 9.78636 9.26526 10.3022L9.26118 12.0152H7.43898L7.41715 11.9883ZM10.6789 21.1431C10.64 21.1421 10.6108 21.1414 10.5893 21.1409L10.6789 21.1431ZM9.25587 14.2555L8.2175 12.9751H9.25894L9.25587 14.2555Z" fill="white" stroke="white" stroke-width="0.23"/>
</g>
<defs>
<clipPath id="clip0">
<rect width="23.2571" height="22" fill="white"/>
</clipPath>
</defs>
</svg>
