<svg width="27" height="22" viewBox="0 0 27 22" fill="none" xmlns="http://www.w3.org/2000/svg">
<g clip-path="url(#clip0)">
<path d="M6.78805 19.5688C7.12131 19.5688 7.39028 19.297 7.39028 18.9631C7.39028 18.6292 7.12131 18.3573 6.78805 18.3573C6.45478 18.3573 6.18581 18.6292 6.18581 18.9631C6.18581 19.297 6.45478 19.5688 6.78805 19.5688Z" fill="white" stroke="white" stroke-width="0.2"/>
<path d="M25.8683 13.3605L25.8682 13.3602C25.6965 12.9706 25.3917 12.655 25.0084 12.4704C24.6252 12.2858 24.1888 12.2442 23.7777 12.3532L23.7777 12.3532L23.7754 12.3539L16.518 14.4702L16.518 14.4701L16.5146 14.4712C16.366 14.5204 16.2422 14.6253 16.1693 14.7639C16.0963 14.9025 16.0798 15.064 16.1232 15.2145C16.1667 15.365 16.2666 15.4929 16.4022 15.5711C16.5378 15.6494 16.6984 15.672 16.8503 15.6341L16.8503 15.6342L16.8541 15.6331L24.1056 13.5178C24.2357 13.4897 24.3714 13.5065 24.4908 13.5654C24.6108 13.6245 24.7072 13.7225 24.7644 13.8436L24.9952 14.3789C24.9953 14.3792 24.9954 14.3795 24.9955 14.3798C25.0445 14.5005 25.05 14.6345 25.011 14.7588C24.9722 14.8825 24.8918 14.9888 24.7836 15.0596L14.6804 20.7378C14.4924 20.8278 14.2876 20.8777 14.0793 20.8842C13.8712 20.8907 13.664 20.8538 13.4709 20.7758L8.97524 18.5172L8.97527 18.5172L8.97216 18.5157C8.82933 18.45 8.66655 18.4425 8.51832 18.495C8.37011 18.5474 8.24814 18.6556 8.17821 18.7965C8.10829 18.9374 8.09586 19.1001 8.14356 19.25C8.19125 19.3999 8.29535 19.5254 8.43385 19.5998L8.43383 19.5999L8.43629 19.6011L12.9355 21.8615L12.9355 21.8615L12.9377 21.8625C13.2791 22.0239 13.6527 22.105 14.0301 22.0997C14.4628 22.1067 14.8901 22.0024 15.2712 21.7969L15.2712 21.797L15.2727 21.7961L25.3841 16.1122L25.3841 16.1123L25.3866 16.1108C25.7527 15.8907 26.0269 15.5453 26.1586 15.1385C26.2904 14.7317 26.2707 14.2909 26.1034 13.8974L26.1029 13.8965L25.8683 13.3605Z" fill="white" stroke="white" stroke-width="0.2"/>
<path d="M11.3276 11.7835H5.62375L14.0732 18.9164H14.1311V18.9165L14.1335 18.9164C14.3444 18.9113 14.5522 18.8638 14.7443 18.7766C14.9364 18.6894 15.109 18.5643 15.2518 18.4089C15.2519 18.4089 15.2519 18.4088 15.252 18.4087L15.4585 18.1867L15.4585 18.1867L15.4595 18.1856C15.7439 17.8707 15.9021 17.4616 15.9036 17.037C15.9051 16.6124 15.7498 16.2022 15.4676 15.8854C15.4676 15.8853 15.4675 15.8853 15.4675 15.8852L12.1873 12.1738L12.1874 12.1738L12.1852 12.1714C11.9623 11.9351 11.6557 11.7958 11.3314 11.7836L11.3314 11.7835H11.3276ZM3.96664 19.3689L3.96665 19.3688H3.96176H1.56704V19.3687L1.56263 19.3689C1.44832 19.3739 1.3366 19.3336 1.25171 19.2566C1.16746 19.1802 1.11637 19.0738 1.10937 18.9602V11.3807C1.11636 11.2663 1.16802 11.1593 1.25317 11.0828C1.33896 11.0057 1.45174 10.9659 1.56674 10.972L1.56673 10.9722H1.57209H3.96176V10.9723L3.96664 10.9721C4.08163 10.9664 4.19422 11.0065 4.27998 11.0835C4.36505 11.16 4.4169 11.2667 4.42448 11.381V18.9599C4.4169 19.0742 4.36505 19.181 4.27998 19.2574C4.19422 19.3345 4.08163 19.3745 3.96664 19.3689Z" fill="white" stroke="white" stroke-width="0.2"/>
<path d="M13.4969 8.10377L13.5384 8.15225C13.7951 8.45229 14.0835 8.7237 14.3983 8.96176L14.5583 9.08274L14.3654 9.1377C13.7069 9.3253 13.1068 9.47443 12.5993 9.5882L15.1838 11.022C18.3927 10.6603 22.315 8.52437 25.0017 6.83304L25.0681 6.79123L25.1245 6.84579C25.3771 7.09011 25.6459 7.31695 25.9292 7.52476L26.0464 7.61078L25.9241 7.68948C24.5213 8.59238 22.7311 9.64872 20.8379 10.5195C18.9458 11.3898 16.9447 12.0777 15.1215 12.2384L15.1127 12.2392V12.2388H15.0706C14.9652 12.2403 14.8613 12.2142 14.7691 12.1631L14.7692 12.1632L14.8175 12.0756L14.769 12.1631L13.4969 8.10377ZM13.4969 8.10377L13.4354 8.12097C12.5529 8.368 11.6564 8.56213 10.7507 8.70232L13.4969 8.10377ZM25.87 7.60539L25.8109 7.68602C25.8005 7.67845 25.7902 7.67085 25.78 7.66323C25.8102 7.64388 25.8402 7.6246 25.87 7.60539ZM25.87 7.60539L25.8159 7.5213C25.8054 7.52806 25.7949 7.53483 25.7843 7.54161C25.8127 7.56306 25.8413 7.58432 25.87 7.60539ZM14.338 9.04153C14.2978 9.05299 14.2578 9.06431 14.218 9.07549C14.2378 9.09089 14.2577 9.10615 14.2777 9.12129L14.338 9.04153ZM14.338 9.04153L14.3106 8.94535C14.2869 8.95211 14.2633 8.95881 14.2397 8.96547C14.2722 8.99118 14.305 9.01653 14.338 9.04153ZM10.5403 9.83474L10.5882 9.74695L10.54 9.83455L10.5402 9.83464C10.5402 9.83467 10.5403 9.83471 10.5403 9.83474Z" fill="white" stroke="white" stroke-width="0.2"/>
<path d="M17.6159 9.10224C18.515 9.10574 19.3949 8.8418 20.1442 8.34385C20.8935 7.8459 21.4784 7.13634 21.8249 6.30505C22.1714 5.47375 22.2639 4.55812 22.0906 3.67412C21.9174 2.79012 21.4862 1.97753 20.8516 1.33927C20.2171 0.701015 19.4078 0.2658 18.5263 0.0887546C17.6447 -0.0882912 16.7305 0.000796958 15.8995 0.344735C15.0685 0.688674 14.3581 1.27199 13.8582 2.0208C13.3583 2.76961 13.0915 3.65022 13.0915 4.5511C13.0915 5.75508 13.5676 6.91 14.4156 7.763C15.2636 8.616 16.4144 9.09756 17.6159 9.10224ZM17.6159 1.01133C18.3152 1.00883 18.9995 1.2143 19.5821 1.60173C20.1647 1.98917 20.6195 2.54112 20.8888 3.18771C21.1581 3.83429 21.2299 4.54642 21.095 5.2339C20.9601 5.92138 20.6246 6.55328 20.1311 7.0496C19.6375 7.54591 19.0081 7.88429 18.3224 8.02191C17.6368 8.15952 16.9258 8.09016 16.2796 7.82262C15.6333 7.55508 15.0808 7.10139 14.692 6.519C14.3033 5.93662 14.0958 5.25174 14.0958 4.5511C14.0958 3.61448 14.4662 2.71604 15.126 2.05257C15.7858 1.38909 16.6812 1.01468 17.6159 1.01133Z" fill="white"/>
<path d="M17.6159 9.10224C18.515 9.10574 19.3949 8.8418 20.1442 8.34385C20.8935 7.8459 21.4784 7.13634 21.8249 6.30505C22.1714 5.47375 22.2639 4.55812 22.0906 3.67412C21.9174 2.79012 21.4862 1.97753 20.8516 1.33927C20.2171 0.701015 19.4078 0.2658 18.5263 0.0887546C17.6447 -0.0882912 16.7305 0.000796958 15.8995 0.344735C15.0685 0.688674 14.3581 1.27199 13.8582 2.0208C13.3583 2.76961 13.0915 3.65022 13.0915 4.5511C13.0915 5.75508 13.5676 6.91 14.4156 7.763C15.2636 8.616 16.4144 9.09756 17.6159 9.10224ZM17.6159 1.01133C18.3152 1.00883 18.9995 1.2143 19.5821 1.60173C20.1647 1.98917 20.6195 2.54112 20.8888 3.18771C21.1581 3.83429 21.2299 4.54642 21.095 5.2339C20.9601 5.92138 20.6246 6.55328 20.1311 7.0496C19.6375 7.54591 19.0081 7.88429 18.3224 8.02191C17.6368 8.15952 16.9258 8.09016 16.2796 7.82262C15.6333 7.55508 15.0808 7.10139 14.692 6.519C14.3033 5.93662 14.0958 5.25174 14.0958 4.5511C14.0958 3.61448 14.4662 2.71604 15.126 2.05257C15.7858 1.38909 16.6812 1.01468 17.6159 1.01133Z" stroke="white"/>
<path d="M17.8885 5.59279C17.811 5.61984 17.7289 5.63108 17.6469 5.62587C17.565 5.62066 17.485 5.5991 17.4115 5.56245C17.3395 5.53325 17.2743 5.48942 17.22 5.43372C17.1657 5.37802 17.1235 5.31166 17.0961 5.23881C17.0533 5.11073 16.9614 5.00495 16.8408 4.94473C16.7201 4.88451 16.5805 4.87479 16.4526 4.91771C16.3248 4.96062 16.2192 5.05266 16.1591 5.17357C16.099 5.29449 16.0893 5.43437 16.1322 5.56245C16.204 5.7672 16.3173 5.95487 16.4649 6.11368C16.6126 6.27249 16.7914 6.39901 16.9901 6.48532L17.1113 6.53083V6.82665C17.1113 6.96077 17.1644 7.08939 17.2591 7.18423C17.3537 7.27906 17.4821 7.33234 17.6159 7.33234C17.7498 7.33234 17.8782 7.27906 17.9728 7.18423C18.0675 7.08939 18.1206 6.96077 18.1206 6.82665V6.57381C18.1782 6.55704 18.2346 6.53678 18.2897 6.51313C18.5615 6.40718 18.7838 6.20301 18.9127 5.94089C19.0417 5.67877 19.0679 5.37775 18.9862 5.09722C18.7843 4.44995 18.2115 4.28055 17.7926 4.15918C17.5554 4.09092 17.3333 4.02518 17.2627 3.90634C17.2423 3.87145 17.2315 3.83174 17.2315 3.7913C17.2315 3.75086 17.2423 3.71115 17.2627 3.67626C17.3434 3.54984 17.5932 3.5195 17.7901 3.55742C17.871 3.577 17.9458 3.61633 18.0079 3.67192C18.07 3.7275 18.1174 3.79761 18.1459 3.876C18.1583 3.94514 18.185 4.01092 18.2243 4.06914C18.2636 4.12736 18.3145 4.17675 18.3738 4.21415C18.4332 4.25155 18.4997 4.27615 18.5691 4.28637C18.6385 4.29659 18.7092 4.29222 18.7768 4.27352C18.8444 4.25482 18.9073 4.22222 18.9617 4.17778C19.016 4.13335 19.0605 4.07806 19.0923 4.01544C19.1241 3.95283 19.1425 3.88425 19.1464 3.8141C19.1503 3.74395 19.1395 3.67375 19.1148 3.60799C19.0447 3.3718 18.9183 3.15627 18.7463 2.98006C18.5744 2.80384 18.3623 2.67224 18.1282 2.59663V2.27552C18.1282 2.1414 18.075 2.01278 17.9804 1.91795C17.8857 1.82311 17.7574 1.76984 17.6235 1.76984C17.4897 1.76984 17.3613 1.82311 17.2666 1.91795C17.172 2.01278 17.1188 2.1414 17.1188 2.27552V2.61432C16.936 2.66354 16.7672 2.75494 16.6259 2.88121C16.4846 3.00748 16.3747 3.16511 16.3051 3.34152C16.2354 3.51793 16.2079 3.70821 16.2248 3.89716C16.2417 4.08612 16.3024 4.26849 16.4022 4.42972C16.6747 4.88989 17.1415 5.02643 17.515 5.13515C17.8885 5.24387 17.9945 5.29191 18.0197 5.40316C18.0449 5.51441 17.8885 5.59279 17.8885 5.59279Z" fill="white"/>
<path d="M17.8885 5.59279C17.811 5.61984 17.7289 5.63108 17.6469 5.62587C17.565 5.62066 17.485 5.5991 17.4115 5.56245C17.3395 5.53325 17.2743 5.48942 17.22 5.43372C17.1657 5.37802 17.1235 5.31166 17.0961 5.23881C17.0533 5.11073 16.9614 5.00495 16.8408 4.94473C16.7201 4.88451 16.5805 4.87479 16.4526 4.91771C16.3248 4.96062 16.2192 5.05266 16.1591 5.17357C16.099 5.29449 16.0893 5.43437 16.1322 5.56245C16.204 5.7672 16.3173 5.95487 16.4649 6.11368C16.6126 6.27249 16.7914 6.39901 16.9901 6.48532L17.1113 6.53083V6.82665C17.1113 6.96077 17.1644 7.08939 17.2591 7.18423C17.3537 7.27906 17.4821 7.33234 17.6159 7.33234C17.7498 7.33234 17.8782 7.27906 17.9728 7.18423C18.0675 7.08939 18.1206 6.96077 18.1206 6.82665V6.57381C18.1782 6.55704 18.2346 6.53678 18.2897 6.51313C18.5615 6.40718 18.7838 6.20301 18.9127 5.94089C19.0417 5.67877 19.0679 5.37775 18.9862 5.09722C18.7843 4.44995 18.2115 4.28055 17.7926 4.15918C17.5554 4.09092 17.3333 4.02518 17.2627 3.90634C17.2423 3.87145 17.2315 3.83174 17.2315 3.7913C17.2315 3.75086 17.2423 3.71115 17.2627 3.67626C17.3434 3.54984 17.5932 3.5195 17.7901 3.55742C17.871 3.577 17.9458 3.61633 18.0079 3.67192C18.07 3.7275 18.1174 3.79761 18.1459 3.876C18.1583 3.94514 18.185 4.01092 18.2243 4.06914C18.2636 4.12736 18.3145 4.17675 18.3738 4.21415C18.4332 4.25155 18.4997 4.27615 18.5691 4.28637C18.6385 4.29659 18.7092 4.29222 18.7768 4.27352C18.8444 4.25482 18.9073 4.22222 18.9617 4.17778C19.016 4.13335 19.0605 4.07806 19.0923 4.01544C19.1241 3.95283 19.1425 3.88425 19.1464 3.8141C19.1503 3.74395 19.1395 3.67375 19.1148 3.60799C19.0447 3.3718 18.9183 3.15627 18.7463 2.98006C18.5744 2.80384 18.3623 2.67224 18.1282 2.59663V2.27552C18.1282 2.1414 18.075 2.01278 17.9804 1.91795C17.8857 1.82311 17.7574 1.76984 17.6235 1.76984C17.4897 1.76984 17.3613 1.82311 17.2666 1.91795C17.172 2.01278 17.1188 2.1414 17.1188 2.27552V2.61432C16.936 2.66354 16.7672 2.75494 16.6259 2.88121C16.4846 3.00748 16.3747 3.16511 16.3051 3.34152C16.2354 3.51793 16.2079 3.70821 16.2248 3.89716C16.2417 4.08612 16.3024 4.26849 16.4022 4.42972C16.6747 4.88989 17.1415 5.02643 17.515 5.13515C17.8885 5.24387 17.9945 5.29191 18.0197 5.40316C18.0449 5.51441 17.8885 5.59279 17.8885 5.59279Z" stroke="white"/>
</g>
<defs>
<clipPath id="clip0">
<rect width="26.1449" height="22" fill="white"/>
</clipPath>
</defs>
</svg>
