<svg width="21" height="22" viewBox="0 0 21 22" fill="none" xmlns="http://www.w3.org/2000/svg">
<g clip-path="url(#clip0)">
<mask id="path-1-outside-1" maskUnits="userSpaceOnUse" x="-1" y="-1" width="23" height="24" fill="black">
<rect fill="white" x="-1" y="-1" width="23" height="24"/>
<path d="M19.4099 0H1.59005C1.16897 0.00231143 0.765698 0.199372 0.467945 0.548321C0.170192 0.897269 0.00204306 1.36988 7.07502e-05 1.86336V16.9988C-0.00190829 17.2458 0.037649 17.4909 0.116484 17.72C0.195319 17.9491 0.311887 18.1577 0.459532 18.334C0.607177 18.5103 0.783008 18.6508 0.976984 18.7474C1.17096 18.8441 1.37928 18.895 1.59005 18.8973H7.64249V21.2441H5.46751C5.38198 21.2441 5.29995 21.2839 5.23947 21.3548C5.17899 21.4257 5.14501 21.5218 5.14501 21.6221C5.14501 21.7223 5.17899 21.8184 5.23947 21.8893C5.29995 21.9602 5.38198 22 5.46751 22H15.5399C15.5819 22 15.6235 21.9902 15.6622 21.9711C15.7009 21.952 15.736 21.924 15.7653 21.8888C15.7947 21.8536 15.8177 21.8118 15.8331 21.766C15.8485 21.7202 15.8559 21.6713 15.8549 21.6221C15.8549 21.5233 15.822 21.4285 15.7631 21.3579C15.7042 21.2872 15.6241 21.2464 15.5399 21.2441H13.3649V18.8973H19.4099C19.6209 18.8962 19.8297 18.846 20.0241 18.7498C20.2185 18.6535 20.3948 18.5131 20.5426 18.3366C20.6905 18.16 20.807 17.9509 20.8855 17.7213C20.9639 17.4917 21.0028 17.2461 20.9998 16.9988V14.7048C21.0008 14.6555 20.9934 14.6066 20.9781 14.5608C20.9627 14.515 20.9396 14.4732 20.9103 14.438C20.8809 14.4028 20.8459 14.3748 20.8071 14.3557C20.7684 14.3366 20.7269 14.3268 20.6848 14.3268C20.6428 14.3268 20.6013 14.3366 20.5625 14.3557C20.5238 14.3748 20.4888 14.4028 20.4594 14.438C20.4301 14.4732 20.407 14.515 20.3916 14.5608C20.3763 14.6066 20.3688 14.6555 20.3698 14.7048V15.8825H11.085V10.8374C11.085 10.1567 10.8542 9.50391 10.4435 9.02259C10.0328 8.54127 9.47579 8.27087 8.89497 8.27087H4.11753C3.53671 8.27087 2.97968 8.54127 2.56898 9.02259C2.15828 9.50391 1.92755 10.1567 1.92755 10.8374V15.8825H0.637564V1.86336C0.637556 1.5665 0.737667 1.28166 0.916081 1.07092C1.0945 0.860188 1.33675 0.740633 1.59005 0.738314H19.4099C19.6639 0.740613 19.9069 0.859883 20.0865 1.07037C20.2661 1.28087 20.3679 1.56569 20.3698 1.86336V1.94247C20.3698 2.04038 20.403 2.13427 20.4621 2.2035C20.5212 2.27273 20.6013 2.31163 20.6848 2.31163C20.7678 2.30939 20.8468 2.26978 20.9055 2.20103C20.9641 2.13228 20.9979 2.03967 20.9998 1.94247V1.86336C20.9979 1.36988 20.8297 0.897269 20.532 0.548321C20.2342 0.199372 19.8309 0.00231143 19.4099 0ZM12.7499 21.2177H8.24998V18.8973H12.7499V21.2177ZM2.55754 10.8374C2.55754 10.3525 2.7219 9.88751 3.01445 9.54466C3.30701 9.2018 3.70379 9.00919 4.11753 9.00919H6.2175V9.03675C6.2175 9.13466 6.25069 9.22856 6.30976 9.29779C6.36884 9.36702 6.44896 9.40591 6.5325 9.40591C6.61604 9.40591 6.69616 9.36702 6.75524 9.29779C6.81431 9.22856 6.8475 9.13466 6.8475 9.03675V9.00919H8.89497C9.30741 9.01151 9.70227 9.20515 9.9932 9.54776C10.2841 9.89036 10.4475 10.354 10.4475 10.8374V15.8825H9.20997V16.2241C9.21704 16.1703 9.21409 16.1153 9.20132 16.0629C9.18855 16.0105 9.16626 15.9619 9.13599 15.9206C9.10571 15.8792 9.06816 15.846 9.02592 15.8233C8.98367 15.8005 8.93772 15.7887 8.89122 15.7887C8.84473 15.7887 8.79878 15.8005 8.75653 15.8233C8.71428 15.846 8.67674 15.8792 8.64646 15.9206C8.61619 15.9619 8.5939 16.0105 8.58113 16.0629C8.56836 16.1153 8.56541 16.1703 8.57248 16.2241V15.8825H4.44002V16.2241C4.44002 16.1239 4.40605 16.0278 4.34557 15.9569C4.28509 15.886 4.20306 15.8462 4.11753 15.8462C4.07552 15.8462 4.03394 15.856 3.99522 15.8751C3.95651 15.8942 3.92145 15.9222 3.8921 15.9574C3.86275 15.9926 3.8397 16.0344 3.82432 16.0802C3.80894 16.126 3.80153 16.1749 3.80253 16.2241V15.8825H2.55754V10.8374ZM2.25005 16.6296H20.3698V16.9988C20.3698 17.2972 20.2687 17.5833 20.0887 17.7943C19.9086 18.0053 19.6645 18.1238 19.4099 18.1238H1.59005C1.46434 18.1239 1.33986 18.0947 1.22381 18.038C1.10776 17.9814 1.00242 17.8984 0.913876 17.7938C0.82533 17.6892 0.755327 17.5651 0.707904 17.4287C0.66048 17.2922 0.636574 17.1461 0.637564 16.9988V16.6296H2.25005Z"/>
</mask>
<path d="M19.4099 0H1.59005C1.16897 0.00231143 0.765698 0.199372 0.467945 0.548321C0.170192 0.897269 0.00204306 1.36988 7.07502e-05 1.86336V16.9988C-0.00190829 17.2458 0.037649 17.4909 0.116484 17.72C0.195319 17.9491 0.311887 18.1577 0.459532 18.334C0.607177 18.5103 0.783008 18.6508 0.976984 18.7474C1.17096 18.8441 1.37928 18.895 1.59005 18.8973H7.64249V21.2441H5.46751C5.38198 21.2441 5.29995 21.2839 5.23947 21.3548C5.17899 21.4257 5.14501 21.5218 5.14501 21.6221C5.14501 21.7223 5.17899 21.8184 5.23947 21.8893C5.29995 21.9602 5.38198 22 5.46751 22H15.5399C15.5819 22 15.6235 21.9902 15.6622 21.9711C15.7009 21.952 15.736 21.924 15.7653 21.8888C15.7947 21.8536 15.8177 21.8118 15.8331 21.766C15.8485 21.7202 15.8559 21.6713 15.8549 21.6221C15.8549 21.5233 15.822 21.4285 15.7631 21.3579C15.7042 21.2872 15.6241 21.2464 15.5399 21.2441H13.3649V18.8973H19.4099C19.6209 18.8962 19.8297 18.846 20.0241 18.7498C20.2185 18.6535 20.3948 18.5131 20.5426 18.3366C20.6905 18.16 20.807 17.9509 20.8855 17.7213C20.9639 17.4917 21.0028 17.2461 20.9998 16.9988V14.7048C21.0008 14.6555 20.9934 14.6066 20.9781 14.5608C20.9627 14.515 20.9396 14.4732 20.9103 14.438C20.8809 14.4028 20.8459 14.3748 20.8071 14.3557C20.7684 14.3366 20.7269 14.3268 20.6848 14.3268C20.6428 14.3268 20.6013 14.3366 20.5625 14.3557C20.5238 14.3748 20.4888 14.4028 20.4594 14.438C20.4301 14.4732 20.407 14.515 20.3916 14.5608C20.3763 14.6066 20.3688 14.6555 20.3698 14.7048V15.8825H11.085V10.8374C11.085 10.1567 10.8542 9.50391 10.4435 9.02259C10.0328 8.54127 9.47579 8.27087 8.89497 8.27087H4.11753C3.53671 8.27087 2.97968 8.54127 2.56898 9.02259C2.15828 9.50391 1.92755 10.1567 1.92755 10.8374V15.8825H0.637564V1.86336C0.637556 1.5665 0.737667 1.28166 0.916081 1.07092C1.0945 0.860188 1.33675 0.740633 1.59005 0.738314H19.4099C19.6639 0.740613 19.9069 0.859883 20.0865 1.07037C20.2661 1.28087 20.3679 1.56569 20.3698 1.86336V1.94247C20.3698 2.04038 20.403 2.13427 20.4621 2.2035C20.5212 2.27273 20.6013 2.31163 20.6848 2.31163C20.7678 2.30939 20.8468 2.26978 20.9055 2.20103C20.9641 2.13228 20.9979 2.03967 20.9998 1.94247V1.86336C20.9979 1.36988 20.8297 0.897269 20.532 0.548321C20.2342 0.199372 19.8309 0.00231143 19.4099 0ZM12.7499 21.2177H8.24998V18.8973H12.7499V21.2177ZM2.55754 10.8374C2.55754 10.3525 2.7219 9.88751 3.01445 9.54466C3.30701 9.2018 3.70379 9.00919 4.11753 9.00919H6.2175V9.03675C6.2175 9.13466 6.25069 9.22856 6.30976 9.29779C6.36884 9.36702 6.44896 9.40591 6.5325 9.40591C6.61604 9.40591 6.69616 9.36702 6.75524 9.29779C6.81431 9.22856 6.8475 9.13466 6.8475 9.03675V9.00919H8.89497C9.30741 9.01151 9.70227 9.20515 9.9932 9.54776C10.2841 9.89036 10.4475 10.354 10.4475 10.8374V15.8825H9.20997V16.2241C9.21704 16.1703 9.21409 16.1153 9.20132 16.0629C9.18855 16.0105 9.16626 15.9619 9.13599 15.9206C9.10571 15.8792 9.06816 15.846 9.02592 15.8233C8.98367 15.8005 8.93772 15.7887 8.89122 15.7887C8.84473 15.7887 8.79878 15.8005 8.75653 15.8233C8.71428 15.846 8.67674 15.8792 8.64646 15.9206C8.61619 15.9619 8.5939 16.0105 8.58113 16.0629C8.56836 16.1153 8.56541 16.1703 8.57248 16.2241V15.8825H4.44002V16.2241C4.44002 16.1239 4.40605 16.0278 4.34557 15.9569C4.28509 15.886 4.20306 15.8462 4.11753 15.8462C4.07552 15.8462 4.03394 15.856 3.99522 15.8751C3.95651 15.8942 3.92145 15.9222 3.8921 15.9574C3.86275 15.9926 3.8397 16.0344 3.82432 16.0802C3.80894 16.126 3.80153 16.1749 3.80253 16.2241V15.8825H2.55754V10.8374ZM2.25005 16.6296H20.3698V16.9988C20.3698 17.2972 20.2687 17.5833 20.0887 17.7943C19.9086 18.0053 19.6645 18.1238 19.4099 18.1238H1.59005C1.46434 18.1239 1.33986 18.0947 1.22381 18.038C1.10776 17.9814 1.00242 17.8984 0.913876 17.7938C0.82533 17.6892 0.755327 17.5651 0.707904 17.4287C0.66048 17.2922 0.636574 17.1461 0.637564 16.9988V16.6296H2.25005Z" fill="white"/>
<path d="M20.3698 5.54903H20.5698H20.3698ZM20.6848 5.91818V6.11826L20.6902 6.11811L20.6848 5.91818ZM20.9998 5.54903L21.1998 5.55295V5.54903H20.9998ZM20.3698 9.15558H20.5698H20.3698ZM20.6848 9.52474V9.72481L20.6902 9.72467L20.6848 9.52474ZM20.9998 9.15558L21.1998 9.15951V9.15558H20.9998ZM20.3698 12.7621H20.5698H20.3698ZM20.6848 13.1313V13.3314L20.6902 13.3312L20.6848 13.1313ZM20.9998 12.7621L21.1998 12.7661V12.7621H20.9998ZM20.1698 5.46992V5.54903H20.5698V5.46992H20.1698ZM20.1698 5.54903C20.1698 5.69062 20.2176 5.83159 20.31 5.93988L20.6142 5.68024C20.5885 5.65007 20.5698 5.60324 20.5698 5.54903L20.1698 5.54903ZM20.31 5.93988C20.4032 6.04914 20.5371 6.11818 20.6848 6.11818L20.6848 5.71818C20.6655 5.71818 20.6392 5.70944 20.6142 5.68024L20.31 5.93988ZM20.6902 6.11811C20.8352 6.1142 20.9658 6.04495 21.0576 5.9374L20.7533 5.67777C20.7278 5.70773 20.7003 5.71769 20.6795 5.71826L20.6902 6.11811ZM21.0576 5.9374C21.1486 5.83072 21.1971 5.69263 21.1998 5.55295L20.7999 5.5451C20.7988 5.59983 20.7796 5.64695 20.7533 5.67777L21.0576 5.9374ZM21.1998 5.54903V5.46992H20.7998V5.54903H21.1998ZM20.1698 9.07648V9.15558H20.5698V9.07648H20.1698ZM20.1698 9.15558C20.1698 9.29718 20.2176 9.43815 20.31 9.54644L20.6142 9.2868C20.5885 9.25663 20.5698 9.2098 20.5698 9.15558L20.1698 9.15558ZM20.31 9.54644C20.4032 9.6557 20.5371 9.72474 20.6848 9.72474V9.32474C20.6655 9.32474 20.6392 9.31599 20.6142 9.2868L20.31 9.54644ZM20.6902 9.72467C20.8352 9.72076 20.9658 9.6515 21.0576 9.54396L20.7533 9.28432C20.7278 9.31428 20.7003 9.32425 20.6795 9.32481L20.6902 9.72467ZM21.0576 9.54396C21.1486 9.43728 21.1971 9.29918 21.1998 9.15951L20.7999 9.15166C20.7988 9.20639 20.7796 9.2535 20.7533 9.28432L21.0576 9.54396ZM21.1998 9.15558V9.07648H20.7998V9.15558H21.1998ZM20.1698 12.683V12.7621H20.5698V12.683H20.1698ZM20.1698 12.7621C20.1698 12.9037 20.2176 13.0447 20.31 13.153L20.6142 12.8934C20.5885 12.8632 20.5698 12.8164 20.5698 12.7621L20.1698 12.7621ZM20.31 13.153C20.4032 13.2623 20.5371 13.3313 20.6848 13.3313V12.9313C20.6655 12.9313 20.6392 12.9226 20.6142 12.8934L20.31 13.153ZM20.6902 13.3312C20.8352 13.3273 20.9658 13.2581 21.0576 13.1505L20.7533 12.8909C20.7278 12.9208 20.7003 12.9308 20.6795 12.9314L20.6902 13.3312ZM21.0576 13.1505C21.1486 13.0438 21.1971 12.9057 21.1998 12.7661L20.7999 12.7582C20.7988 12.8129 20.7796 12.8601 20.7533 12.8909L21.0576 13.1505ZM21.1998 12.7621V12.683H20.7998V12.7621H21.1998ZM19.4099 0L19.4121 -0.4H19.4099V0ZM1.59005 0L1.59005 -0.400006L1.58786 -0.399994L1.59005 0ZM7.07502e-05 1.86336L-0.399929 1.86177V1.86336H7.07502e-05ZM7.07502e-05 16.9988L0.400071 17.002V16.9988H7.07502e-05ZM1.59005 18.8973L1.58569 19.2973H1.59005V18.8973ZM7.64249 18.8973H8.04249V18.4973H7.64249V18.8973ZM7.64249 21.2441V21.6441H8.04249V21.2441H7.64249ZM5.46751 22V22.4V22ZM15.5399 22L15.54 21.6H15.5399V22ZM15.8549 21.6221L15.4548 21.622L15.455 21.6302L15.8549 21.6221ZM15.5399 21.2441L15.5508 20.8441H15.5399V21.2441ZM13.3649 21.2441H12.9649V21.6441H13.3649V21.2441ZM13.3649 18.8973V18.4973H12.9649V18.8973H13.3649ZM19.4099 18.8973V19.2973L19.412 19.2973L19.4099 18.8973ZM20.9998 16.9988H20.5998L20.5999 17.0036L20.9998 16.9988ZM20.9998 14.7048L20.5998 14.6966V14.7048H20.9998ZM20.6848 14.3268L20.6847 14.7268L20.685 14.7268L20.6848 14.3268ZM20.3698 14.7048L20.7699 14.7048L20.7698 14.6966L20.3698 14.7048ZM20.3698 15.8825V16.2825H20.7698V15.8825H20.3698ZM11.085 15.8825H10.685V16.2825H11.085V15.8825ZM4.11753 8.27087V8.67087V8.27087ZM1.92755 10.8374H1.52755H1.92755ZM1.92755 15.8825V16.2825H2.32755V15.8825H1.92755ZM0.637564 15.8825H0.237564V16.2825H0.637564V15.8825ZM0.637564 1.86336L1.03756 1.86336L1.03756 1.86335L0.637564 1.86336ZM1.59005 0.738314L1.59005 0.338297L1.58639 0.338331L1.59005 0.738314ZM19.4099 0.738314L19.4135 0.338314H19.4099V0.738314ZM20.3698 1.86336L20.7699 1.86336L20.7698 1.86073L20.3698 1.86336ZM20.3698 1.94247H20.7698H20.3698ZM20.6848 2.31163L20.6848 2.71177L20.6956 2.71148L20.6848 2.31163ZM20.9998 1.94247L21.3998 1.95032V1.94247H20.9998ZM20.9998 1.86336L21.3998 1.86336L21.3998 1.86177L20.9998 1.86336ZM12.7499 21.2177V21.6177H13.1499V21.2177H12.7499ZM8.24998 21.2177H7.84998V21.6177H8.24998V21.2177ZM8.24998 18.8973V18.4973H7.84998V18.8973H8.24998ZM12.7499 18.8973H13.1499V18.4973H12.7499V18.8973ZM2.55754 10.8374H2.15754H2.55754ZM4.11753 9.00919L4.11753 8.60919L4.11753 9.00919ZM6.2175 9.00919H6.6175V8.60919H6.2175V9.00919ZM6.2175 9.03675H6.6175H6.2175ZM6.5325 9.40591L6.5325 9.00591L6.5325 9.40591ZM6.8475 9.00919V8.60919H6.4475V9.00919H6.8475ZM8.89497 9.00919L8.89723 8.60919H8.89497V9.00919ZM10.4475 10.8374L10.0475 10.8374V10.8374H10.4475ZM10.4475 15.8825V16.2825H10.8475V15.8825H10.4475ZM9.20997 15.8825V15.4825H8.80997V15.8825H9.20997ZM9.20997 16.2241H8.80997L9.60657 16.2762L9.20997 16.2241ZM8.57248 16.2241L8.17588 16.2762L8.97248 16.2241H8.57248ZM8.57248 15.8825H8.97248V15.4825H8.57248V15.8825ZM4.44002 15.8825V15.4825H4.04002V15.8825H4.44002ZM4.11753 15.8462L4.11739 16.2462H4.11753V15.8462ZM3.80253 16.2241L3.40261 16.2323L4.20253 16.2241H3.80253ZM3.80253 15.8825H4.20253V15.4825H3.80253V15.8825ZM2.55754 15.8825H2.15754V16.2825H2.55754V15.8825ZM20.3698 16.6296H20.7698V16.2296H20.3698V16.6296ZM1.59005 18.1238L1.59005 17.7238L1.59004 17.7238L1.59005 18.1238ZM0.637564 16.9988L1.03756 17.0015V16.9988H0.637564ZM0.637564 16.6296V16.2296H0.237564V16.6296H0.637564ZM19.4099 -0.4H1.59005V0.4H19.4099V-0.4ZM1.58786 -0.399994C1.03922 -0.396982 0.5293 -0.139823 0.163663 0.288681L0.772227 0.80796C1.0021 0.538567 1.29872 0.401605 1.59225 0.399994L1.58786 -0.399994ZM0.163663 0.288681C-0.200355 0.715288 -0.397606 1.28139 -0.399926 1.86177L0.400068 1.86496C0.401693 1.45837 0.540739 1.07925 0.772227 0.80796L0.163663 0.288681ZM-0.399929 1.86336V16.9988H0.400071V1.86336H-0.399929ZM-0.399916 16.9956C-0.402252 17.2871 -0.355636 17.5773 -0.261748 17.8501L0.494716 17.5898C0.430934 17.4044 0.398435 17.2046 0.400058 17.002L-0.399916 16.9956ZM-0.261748 17.8501C-0.167864 18.1229 -0.0278335 18.3751 0.152871 18.5908L0.766194 18.0772C0.651607 17.9404 0.558501 17.7752 0.494716 17.5898L-0.261748 17.8501ZM0.152871 18.5908C0.33366 18.8067 0.552382 18.9828 0.79859 19.1055L1.15538 18.3894C1.01363 18.3188 0.880695 18.2139 0.766194 18.0772L0.152871 18.5908ZM0.79859 19.1055C1.04509 19.2283 1.31275 19.2943 1.58569 19.2973L1.59441 18.4973C1.44581 18.4957 1.29683 18.4599 1.15538 18.3894L0.79859 19.1055ZM1.59005 19.2973H7.64249V18.4973H1.59005V19.2973ZM7.24249 18.8973V21.2441H8.04249V18.8973H7.24249ZM7.64249 20.8441H5.46751V21.6441H7.64249V20.8441ZM5.46751 20.8441C5.25356 20.8441 5.06399 20.9442 4.93519 21.0952L5.54375 21.6144C5.53591 21.6236 5.5104 21.6441 5.46751 21.6441V20.8441ZM4.93519 21.0952C4.80805 21.2442 4.74501 21.4344 4.74501 21.6221H5.54501C5.54501 21.6168 5.54594 21.6129 5.5467 21.6107C5.54748 21.6085 5.54734 21.6102 5.54375 21.6144L4.93519 21.0952ZM4.74501 21.6221C4.74501 21.8097 4.80806 21.9999 4.93519 22.1489L5.54375 21.6297C5.54733 21.6339 5.54747 21.6356 5.5467 21.6334C5.54594 21.6313 5.54501 21.6273 5.54501 21.6221H4.74501ZM4.93519 22.1489C5.06398 22.2999 5.25355 22.4 5.46751 22.4L5.46751 21.6C5.51041 21.6 5.53592 21.6205 5.54375 21.6297L4.93519 22.1489ZM5.46751 22.4H15.5399V21.6H5.46751V22.4ZM15.5398 22.4C15.6449 22.4 15.747 22.3753 15.8392 22.3298L15.4852 21.6124C15.5 21.6051 15.5189 21.6 15.54 21.6L15.5398 22.4ZM15.8392 22.3298C15.9311 22.2845 16.0097 22.2203 16.0726 22.1449L15.4581 21.6327C15.4622 21.6277 15.4708 21.6195 15.4852 21.6124L15.8392 22.3298ZM16.0726 22.1449C16.1354 22.0695 16.182 21.9836 16.2123 21.8934L15.4539 21.6387C15.4535 21.6401 15.454 21.6376 15.4581 21.6327L16.0726 22.1449ZM16.2123 21.8934C16.2426 21.8031 16.2567 21.7083 16.2548 21.6139L15.455 21.6302C15.4551 21.6343 15.4544 21.6373 15.4539 21.6387L16.2123 21.8934ZM16.2549 21.6221C16.2549 21.4372 16.1938 21.2498 16.0704 21.1018L15.4558 21.614C15.4525 21.61 15.4525 21.6085 15.4532 21.6107C15.454 21.6129 15.4549 21.6168 15.4549 21.622L16.2549 21.6221ZM16.0704 21.1018C15.9455 20.9519 15.7612 20.85 15.5508 20.8443L15.529 21.644C15.4871 21.6428 15.463 21.6225 15.4558 21.614L16.0704 21.1018ZM15.5399 20.8441H13.3649V21.6441H15.5399V20.8441ZM13.7649 21.2441V18.8973H12.9649V21.2441H13.7649ZM13.3649 19.2973H19.4099V18.4973H13.3649V19.2973ZM19.412 19.2973C19.6856 19.2958 19.9542 19.2307 20.2016 19.1083L19.8467 18.3913C19.7052 18.4614 19.5562 18.4965 19.4077 18.4973L19.412 19.2973ZM20.2016 19.1083C20.4487 18.986 20.6681 18.8097 20.8493 18.5934L20.236 18.0797C20.1215 18.2165 19.9884 18.3211 19.8467 18.3913L20.2016 19.1083ZM20.8493 18.5934C21.0304 18.3772 21.1704 18.1243 21.264 17.8507L20.507 17.5919C20.4435 17.7776 20.3505 17.9429 20.236 18.0797L20.8493 18.5934ZM21.264 17.8507C21.3575 17.577 21.4033 17.286 21.3998 16.994L20.5999 17.0036C20.6023 17.2062 20.5704 17.4063 20.507 17.5919L21.264 17.8507ZM21.3998 16.9988V14.7048H20.5998V16.9988H21.3998ZM21.3998 14.7129C21.4017 14.6185 21.3875 14.5237 21.3572 14.4335L20.5989 14.6881C20.5993 14.6895 20.6 14.6926 20.5999 14.6966L21.3998 14.7129ZM21.3572 14.4335C21.3269 14.3432 21.2803 14.2573 21.2175 14.1819L20.603 14.6941C20.5989 14.6892 20.5984 14.6867 20.5989 14.6881L21.3572 14.4335ZM21.2175 14.1819C21.1547 14.1065 21.076 14.0423 20.9841 13.997L20.6302 14.7144C20.6157 14.7073 20.6072 14.6991 20.603 14.6941L21.2175 14.1819ZM20.9841 13.997C20.8919 13.9515 20.7899 13.9268 20.6847 13.9268L20.685 14.7268C20.6638 14.7268 20.645 14.7217 20.6302 14.7144L20.9841 13.997ZM20.685 13.9268C20.5798 13.9268 20.4778 13.9515 20.3856 13.997L20.7395 14.7144C20.7247 14.7217 20.7059 14.7268 20.6847 14.7268L20.685 13.9268ZM20.3856 13.997C20.2937 14.0423 20.215 14.1065 20.1521 14.1819L20.7667 14.6941C20.7625 14.6991 20.754 14.7073 20.7395 14.7144L20.3856 13.997ZM20.1521 14.1819C20.0894 14.2573 20.0427 14.3432 20.0124 14.4335L20.7708 14.6881C20.7713 14.6867 20.7708 14.6892 20.7667 14.6941L20.1521 14.1819ZM20.0124 14.4335C19.9821 14.5237 19.968 14.6185 19.9699 14.7129L20.7698 14.6966C20.7697 14.6925 20.7704 14.6895 20.7708 14.6881L20.0124 14.4335ZM19.9698 14.7048V15.8825H20.7698V14.7048H19.9698ZM20.3698 15.4825H11.085V16.2825H20.3698V15.4825ZM11.485 15.8825V10.8374H10.685V15.8825H11.485ZM11.485 10.8374C11.485 10.0693 11.2252 9.32238 10.7478 8.76295L10.1392 9.28223C10.4833 9.68543 10.685 10.2441 10.685 10.8374H11.485ZM10.7478 8.76295C10.2688 8.20157 9.60421 7.87087 8.89497 7.87087V8.67087C9.34737 8.67087 9.79685 8.88098 10.1392 9.28223L10.7478 8.76295ZM8.89497 7.87087H4.11753V8.67087H8.89497V7.87087ZM4.11753 7.87087C3.40829 7.87087 2.74371 8.20157 2.2647 8.76295L2.87326 9.28223C3.21565 8.88098 3.66513 8.67087 4.11753 8.67087L4.11753 7.87087ZM2.2647 8.76295C1.78734 9.32238 1.52755 10.0693 1.52755 10.8374H2.32755C2.32755 10.2441 2.52922 9.68543 2.87326 9.28223L2.2647 8.76295ZM1.52755 10.8374V15.8825H2.32755V10.8374H1.52755ZM1.92755 15.4825H0.637564V16.2825H1.92755V15.4825ZM1.03756 15.8825V1.86336H0.237564V15.8825H1.03756ZM1.03756 1.86335C1.03756 1.65346 1.10889 1.46224 1.22137 1.32938L0.610797 0.812465C0.366444 1.10109 0.237554 1.47953 0.237564 1.86337L1.03756 1.86335ZM1.22137 1.32938C1.33224 1.19842 1.46807 1.13945 1.59372 1.1383L1.58639 0.338331C1.20543 0.341819 0.856747 0.521957 0.610797 0.812465L1.22137 1.32938ZM1.59005 1.13831H19.4099V0.338314H1.59005V1.13831ZM19.4062 1.1383C19.5332 1.13945 19.6702 1.19875 19.7822 1.33001L20.3908 0.810735C20.1436 0.521017 19.7945 0.341778 19.4135 0.33833L19.4062 1.1383ZM19.7822 1.33001C19.8958 1.46314 19.9685 1.6549 19.9699 1.866L20.7698 1.86073C20.7673 1.47649 20.6364 1.09859 20.3908 0.810735L19.7822 1.33001ZM19.9698 1.86336V1.94247H20.7698V1.86336H19.9698ZM19.9698 1.94247C19.9698 2.12776 20.0321 2.31579 20.1578 2.46314L20.7664 1.94386C20.7707 1.94888 20.7714 1.95158 20.771 1.95045C20.7706 1.94936 20.7698 1.94652 20.7698 1.94247L19.9698 1.94247ZM20.1578 2.46314C20.2852 2.61244 20.4729 2.71163 20.6848 2.71163L20.6848 1.91163C20.7297 1.91163 20.7571 1.93303 20.7664 1.94386L20.1578 2.46314ZM20.6956 2.71148C20.9027 2.7059 21.0849 2.607 21.2098 2.46067L20.6012 1.94139C20.6087 1.93256 20.6329 1.91288 20.6741 1.91177L20.6956 2.71148ZM21.2098 2.46067C21.3331 2.31605 21.3962 2.13247 21.3998 1.95032L20.5999 1.93462C20.5998 1.93965 20.5989 1.94337 20.5982 1.94527C20.5975 1.94722 20.5977 1.94547 20.6012 1.94139L21.2098 2.46067ZM21.3998 1.94247V1.86336H20.5998V1.94247H21.3998ZM21.3998 1.86177C21.3975 1.28139 21.2003 0.715288 20.8362 0.288681L20.2277 0.80796C20.4592 1.07925 20.5982 1.45837 20.5998 1.86496L21.3998 1.86177ZM20.8362 0.288681C20.4706 -0.139823 19.9607 -0.396982 19.4121 -0.399994L19.4077 0.399994C19.7012 0.401605 19.9978 0.538566 20.2277 0.80796L20.8362 0.288681ZM12.7499 20.8177H8.24998V21.6177H12.7499V20.8177ZM8.64998 21.2177V18.8973H7.84998V21.2177H8.64998ZM8.24998 19.2973H12.7499V18.4973H8.24998V19.2973ZM12.3499 18.8973V21.2177H13.1499V18.8973H12.3499ZM2.95754 10.8374C2.95754 10.4399 3.09284 10.069 3.31873 9.8043L2.71017 9.28502C2.35096 9.70599 2.15754 10.2651 2.15754 10.8374L2.95754 10.8374ZM3.31873 9.8043C3.54297 9.5415 3.83221 9.40919 4.11753 9.40919L4.11753 8.60919C3.57537 8.60919 3.07104 8.8621 2.71017 9.28502L3.31873 9.8043ZM4.11753 9.40919H6.2175V8.60919H4.11753V9.40919ZM5.8175 9.00919V9.03675H6.6175V9.00919H5.8175ZM5.8175 9.03675C5.8175 9.22205 5.87975 9.41008 6.00548 9.55743L6.61405 9.03815C6.61833 9.04317 6.61902 9.04586 6.61862 9.04473C6.61824 9.04365 6.6175 9.0408 6.6175 9.03675L5.8175 9.03675ZM6.00548 9.55743C6.13287 9.70672 6.32054 9.80591 6.5325 9.80591L6.5325 9.00591C6.57738 9.00591 6.6048 9.02732 6.61405 9.03815L6.00548 9.55743ZM6.5325 9.80591C6.74446 9.80591 6.93213 9.70672 7.05952 9.55743L6.45095 9.03815C6.4602 9.02732 6.48762 9.00591 6.5325 9.00591L6.5325 9.80591ZM7.05952 9.55743C7.18525 9.41008 7.2475 9.22205 7.2475 9.03675H6.4475C6.4475 9.0408 6.44676 9.04365 6.44638 9.04473C6.44598 9.04587 6.44667 9.04317 6.45095 9.03815L7.05952 9.55743ZM7.2475 9.03675V9.00919H6.4475V9.03675H7.2475ZM6.8475 9.40919H8.89497V8.60919H6.8475V9.40919ZM8.89272 9.40918C9.1772 9.41078 9.46521 9.54395 9.6883 9.80667L10.2981 9.28884C9.93933 8.86635 9.43761 8.61224 8.89723 8.60919L8.89272 9.40918ZM9.6883 9.80667C9.91302 10.0713 10.0475 10.4412 10.0475 10.8374L10.8475 10.8374C10.8475 10.2669 10.6552 9.70942 10.2981 9.28884L9.6883 9.80667ZM10.0475 10.8374V15.8825H10.8475V10.8374H10.0475ZM10.4475 15.4825H9.20997V16.2825H10.4475V15.4825ZM8.80997 15.8825V16.2241H9.60997V15.8825H8.80997ZM9.60657 16.2762C9.62002 16.1737 9.6145 16.0689 9.58994 15.9681L8.8127 16.1576C8.81368 16.1616 8.81406 16.1668 8.81337 16.1721L9.60657 16.2762ZM9.58994 15.9681C9.56539 15.8674 9.52167 15.7702 9.45875 15.6843L8.81323 16.1568L8.8127 16.1576L9.58994 15.9681ZM9.45875 15.6843C9.39574 15.5982 9.31382 15.524 9.21562 15.4711L8.83621 16.1754C8.82251 16.168 8.81568 16.1602 8.81323 16.1568L9.45875 15.6843ZM9.21562 15.4711C9.11702 15.418 9.00611 15.3887 8.89122 15.3887V16.1887C8.86933 16.1887 8.85032 16.183 8.83621 16.1754L9.21562 15.4711ZM8.89122 15.3887C8.77633 15.3887 8.66543 15.418 8.56683 15.4711L8.94624 16.1754C8.93213 16.183 8.91312 16.1887 8.89122 16.1887V15.3887ZM8.56683 15.4711C8.46863 15.524 8.38671 15.5982 8.3237 15.6843L8.96922 16.1568C8.96677 16.1602 8.95994 16.168 8.94624 16.1754L8.56683 15.4711ZM8.3237 15.6843C8.26078 15.7702 8.21706 15.8674 8.1925 15.9681L8.96975 16.1576L8.96922 16.1568L8.3237 15.6843ZM8.1925 15.9681C8.16795 16.0689 8.16242 16.1737 8.17588 16.2762L8.96907 16.1721C8.96839 16.1668 8.96877 16.1616 8.96975 16.1576L8.1925 15.9681ZM8.97248 16.2241V15.8825H8.17248V16.2241H8.97248ZM8.57248 15.4825H4.44002V16.2825H8.57248V15.4825ZM4.04002 15.8825V16.2241H4.84002V15.8825H4.04002ZM4.84002 16.2241C4.84002 16.0365 4.77698 15.8462 4.64985 15.6972L4.04128 16.2165C4.0377 16.2123 4.03756 16.2106 4.03834 16.2128C4.03909 16.2149 4.04002 16.2189 4.04002 16.2241H4.84002ZM4.64985 15.6972C4.52105 15.5463 4.33148 15.4462 4.11753 15.4462V16.2462C4.07464 16.2462 4.04912 16.2257 4.04128 16.2165L4.64985 15.6972ZM4.11766 15.4462C4.0125 15.4461 3.91047 15.4709 3.81825 15.5164L4.17219 16.2338C4.15741 16.2411 4.13855 16.2462 4.11739 16.2462L4.11766 15.4462ZM3.81825 15.5164C3.72634 15.5617 3.6477 15.6259 3.58482 15.7013L4.19937 16.2135C4.19519 16.2185 4.18668 16.2267 4.17219 16.2338L3.81825 15.5164ZM3.58482 15.7013C3.52203 15.7766 3.47543 15.8626 3.44513 15.9528L4.20351 16.2075C4.20397 16.2061 4.20346 16.2086 4.19937 16.2135L3.58482 15.7013ZM3.44513 15.9528C3.41482 16.0431 3.40069 16.1379 3.40261 16.2323L4.20245 16.216C4.20236 16.2119 4.20306 16.2089 4.20351 16.2075L3.44513 15.9528ZM4.20253 16.2241V15.8825H3.40253V16.2241H4.20253ZM3.80253 15.4825H2.55754V16.2825H3.80253V15.4825ZM2.95754 15.8825V10.8374H2.15754V15.8825H2.95754ZM2.25005 17.0296H20.3698V16.2296H2.25005V17.0296ZM19.9698 16.6296V16.9988H20.7698V16.6296H19.9698ZM19.9698 16.9988C19.9698 17.2098 19.8978 17.4018 19.7844 17.5347L20.393 18.054C20.6396 17.7649 20.7698 17.3846 20.7698 16.9988H19.9698ZM19.7844 17.5347C19.6727 17.6656 19.536 17.7238 19.4099 17.7238V18.5238C19.7929 18.5238 20.1446 18.345 20.393 18.054L19.7844 17.5347ZM19.4099 17.7238H1.59005V18.5238H19.4099V17.7238ZM1.59004 17.7238C1.52682 17.7239 1.46221 17.7093 1.39927 17.6786L1.04835 18.3975C1.21752 18.4801 1.40185 18.5239 1.59007 18.5238L1.59004 17.7238ZM1.39927 17.6786C1.33603 17.6477 1.27412 17.6003 1.21916 17.5353L0.608592 18.0523C0.730721 18.1965 0.879488 18.3151 1.04835 18.3975L1.39927 17.6786ZM1.21916 17.5353C1.16411 17.4703 1.11789 17.3899 1.08573 17.2974L0.330074 17.56C0.392768 17.7404 0.486553 17.9081 0.608592 18.0523L1.21916 17.5353ZM1.08573 17.2974C1.05358 17.2048 1.03687 17.1041 1.03755 17.0015L0.237573 16.9961C0.236283 17.1881 0.267377 17.3796 0.330074 17.56L1.08573 17.2974ZM1.03756 16.9988V16.6296H0.237564V16.9988H1.03756ZM0.637564 17.0296H2.25005V16.2296H0.637564V17.0296Z" fill="#FBFDFF" mask="url(#path-1-outside-1)"/>
<path d="M6.49352 2.80001L6.49277 2.80002C6.04487 2.80341 5.61628 2.98284 5.29956 3.29956C4.98284 3.61628 4.80341 4.04487 4.80002 4.49277L5.00001 4.49429L4.80001 4.49352C4.79873 4.8303 4.89751 5.15987 5.08381 5.44043C5.27011 5.72098 5.53555 5.93988 5.84645 6.06935C6.15735 6.19882 6.49969 6.23304 6.83006 6.16765C7.16044 6.10226 7.46394 5.94022 7.70208 5.70208C7.94022 5.46394 8.10226 5.16044 8.16765 4.83007C8.23304 4.49969 8.19882 4.15735 8.06935 3.84645C7.93988 3.53555 7.72098 3.27011 7.44043 3.08381C7.15987 2.89751 6.8303 2.79873 6.49352 2.80001ZM7.25851 4.1816C7.28122 4.23688 7.29767 4.29436 7.30765 4.35299L7.30764 4.49427C7.30763 4.65553 7.25969 4.81314 7.1699 4.94709C7.08012 5.08104 6.95254 5.18528 6.80338 5.24656C6.65423 5.30784 6.49022 5.3234 6.3322 5.29126C6.17417 5.25913 6.02927 5.18075 5.9159 5.06607C5.80252 4.9514 5.72579 4.80562 5.69545 4.64724C5.66511 4.48887 5.68254 4.32505 5.74551 4.17659C5.80848 4.02814 5.91416 3.90176 6.04912 3.8135C6.18408 3.72524 6.34223 3.67909 6.50348 3.68094L6.50688 3.68092C6.61371 3.68031 6.7196 3.70091 6.81842 3.74151C6.91724 3.78211 7.00702 3.84192 7.08256 3.91746C7.1581 3.993 7.21791 4.08278 7.25851 4.1816Z" fill="white" stroke="#FBFDFF" stroke-width="0.4"/>
<path d="M20.0023 3.42792L20.0041 3.22793C20.3331 3.2308 20.6401 3.3862 20.8607 3.64672C21.0806 3.90629 21.1998 4.25136 21.1998 4.6057V12.024C21.1998 12.2017 21.1698 12.3783 21.111 12.5437C21.0523 12.7091 20.9655 12.8611 20.8545 12.9903C20.7434 13.1196 20.6098 13.2238 20.4604 13.2951C20.3112 13.3664 20.15 13.4031 19.9865 13.4018M20.0023 3.42792L13.4024 13.2018C13.1358 13.2018 12.8802 13.0777 12.6917 12.8568C12.5033 12.6359 12.3974 12.3364 12.3974 12.024V9.29927M20.0023 3.42792V3.22792H13.4174C13.0866 3.22792 12.7772 3.38215 12.5546 3.64306C12.3328 3.903 12.2124 4.24964 12.2124 4.6057V5.01218M20.0023 3.42792L12.2124 5.01218M19.9865 13.4018C19.9862 13.4018 19.9859 13.4018 19.9856 13.4018L19.9873 13.2018V13.4018H19.9865ZM19.9865 13.4018H13.4024C13.0716 13.4018 12.7622 13.2475 12.5396 12.9866C12.3178 12.7267 12.1974 12.3801 12.1974 12.024V9.30109M12.1974 9.30109C12.1974 9.30158 12.1974 9.30206 12.1974 9.30254L12.3974 9.29927M12.1974 9.30109C12.1963 9.2488 12.1835 9.19933 12.1619 9.15787M12.1974 9.30109V9.29927H12.3974M12.3974 9.29927L12.1619 9.15787M12.1619 9.15787L12.1634 9.16054L12.3374 9.06196L12.1608 9.1558C12.1611 9.15649 12.1615 9.15718 12.1619 9.15787ZM12.1619 9.15787L10.3109 5.89087L10.3065 5.88302L10.3066 5.88293C10.2628 5.79662 10.2405 5.70012 10.2405 5.60331C10.2405 5.50772 10.2622 5.41243 10.305 5.32696M12.1619 9.15787L10.4849 5.79228C10.4559 5.73513 10.4405 5.66984 10.4405 5.60331C10.4405 5.53678 10.4559 5.47148 10.4849 5.41433M10.305 5.32696C10.3045 5.32806 10.304 5.32916 10.3034 5.33026L10.4849 5.41433M10.305 5.32696C10.3463 5.23907 10.4085 5.16152 10.4883 5.10489C10.5696 5.04728 10.6656 5.014 10.7664 5.01221L10.7699 5.01214V5.01218H12.2124M10.305 5.32696C10.3055 5.32587 10.3061 5.32477 10.3066 5.32368L10.4849 5.41433M10.4849 5.41433C10.5128 5.35404 10.554 5.30354 10.604 5.26801C10.6541 5.23249 10.7114 5.21322 10.7699 5.21218L12.2124 5.01218M13.2499 9.29998C13.2517 9.0365 13.1829 8.77671 13.0503 8.55709L11.7179 6.16807H12.7499C12.8996 6.16807 13.0354 6.0981 13.1301 5.98719C13.2239 5.87725 13.2724 5.73405 13.2724 5.59012V4.6076C13.2739 4.53733 13.2985 4.47537 13.3343 4.43347C13.369 4.39284 13.4087 4.37633 13.4428 4.37502H20.0219C20.056 4.37633 20.0957 4.39284 20.1304 4.43347C20.1661 4.47532 20.1907 4.53718 20.1923 4.60733L20.1698 12.0234V12.024C20.1698 12.0945 20.1456 12.157 20.11 12.1987C20.0753 12.2395 20.0356 12.2547 20.0023 12.2547H13.4174C13.3841 12.2547 13.3444 12.2395 13.3097 12.1987C13.2741 12.157 13.2499 12.0945 13.2499 12.024V9.29998ZM13.2499 9.29998C13.2499 9.30023 13.2499 9.30047 13.2499 9.30072L13.0499 9.29927M13.2499 9.29998V9.29927H13.0499M13.0499 9.29927C13.0516 9.06943 12.9912 8.84485 12.8774 8.65764M13.0499 9.29927V12.024C13.0499 12.1382 13.0886 12.2478 13.1575 12.3285C13.2264 12.4093 13.3199 12.4547 13.4174 12.4547H20.0023C20.0998 12.4547 20.1932 12.4093 20.2622 12.3285C20.3311 12.2478 20.3698 12.1382 20.3698 12.024L12.8774 8.65764M12.8774 8.65764L11.4889 6.16807L12.8774 8.65764Z" fill="white" stroke="#FBFDFF" stroke-width="0.4"/>
<path d="M14.6399 6.73689V6.73682L14.6347 6.73696C14.4876 6.74083 14.355 6.81103 14.2619 6.92024C14.1694 7.0286 14.1202 7.16897 14.1175 7.311L14.1174 7.311V7.31484C14.1174 7.45877 14.1659 7.60197 14.2597 7.7119C14.3544 7.82281 14.4902 7.89278 14.6399 7.89278H18.7499C18.8996 7.89278 19.0354 7.82281 19.1301 7.7119C19.2239 7.60197 19.2724 7.45877 19.2724 7.31484C19.2724 7.1709 19.2239 7.0277 19.1301 6.91777C19.0354 6.80686 18.8996 6.73689 18.7499 6.73689H14.6399Z" fill="white" stroke="#FBFDFF" stroke-width="0.4"/>
<path d="M17.6975 9.54535C17.6973 9.4754 17.6852 9.4056 17.6616 9.33976C17.6377 9.27329 17.602 9.21117 17.5554 9.15776C17.5086 9.1043 17.4514 9.06028 17.3861 9.03021C17.3216 9.00051 17.2515 8.98546 17.18 8.987H14.64C14.4922 8.987 14.3584 9.05604 14.2651 9.1653C14.1727 9.27359 14.125 9.41455 14.125 9.55615C14.125 9.69775 14.1727 9.83872 14.2651 9.94701C14.3584 10.0563 14.4922 10.1253 14.64 10.1253H17.1824C17.1824 10.1253 17.1825 10.1253 17.1825 10.1253C17.256 10.1253 17.3278 10.108 17.3933 10.0758C17.4586 10.0435 17.5154 9.99748 17.5615 9.94215C17.6076 9.88687 17.6424 9.82302 17.6653 9.755C17.6879 9.68762 17.6987 9.61645 17.6975 9.54535ZM17.6975 9.54535C17.6975 9.54604 17.6975 9.54673 17.6975 9.54742L17.4975 9.54736L17.6974 9.5433C17.6974 9.54398 17.6975 9.54467 17.6975 9.54535Z" fill="white" stroke="#FBFDFF" stroke-width="0.4"/>
</g>
<defs>
<clipPath id="clip0">
<rect width="21" height="22" fill="white"/>
</clipPath>
</defs>
</svg>
