<svg width="15" height="15" viewBox="0 0 15 15" fill="none" xmlns="http://www.w3.org/2000/svg">
<path fill-rule="evenodd" clip-rule="evenodd" d="M14.8001 1.16527C14.8635 1.10189 14.9137 1.02664 14.948 0.943821C14.9823 0.861004 15 0.772242 15 0.682601C15 0.592961 14.9823 0.504198 14.948 0.421381C14.9137 0.338564 14.8635 0.263314 14.8001 0.199929C14.7367 0.136544 14.6614 0.0862639 14.5786 0.05196C14.4958 0.0176561 14.407 0 14.3174 0C14.2278 0 14.139 0.0176561 14.0562 0.05196C13.9734 0.0862639 13.8981 0.136544 13.8347 0.199929L7.5 6.53602L1.16527 0.199929C1.10189 0.136544 1.02664 0.0862639 0.943821 0.05196C0.861004 0.017656 0.772242 6.67873e-10 0.682601 0C0.592961 -6.67874e-10 0.504198 0.0176561 0.421381 0.05196C0.338564 0.0862639 0.263314 0.136544 0.199929 0.199929C0.136544 0.263314 0.0862639 0.338564 0.05196 0.421381C0.0176561 0.504198 -6.67873e-10 0.592961 0 0.682601C6.67874e-10 0.772242 0.017656 0.861004 0.05196 0.943821C0.0862639 1.02664 0.136544 1.10189 0.199929 1.16527L6.53602 7.5L0.199929 13.8347C0.0719165 13.9627 0 14.1364 0 14.3174C0 14.4984 0.0719165 14.6721 0.199929 14.8001C0.327942 14.9281 0.501564 15 0.682601 15C0.863638 15 1.03726 14.9281 1.16527 14.8001L7.5 8.46398L13.8347 14.8001C13.9627 14.9281 14.1364 15 14.3174 15C14.4984 15 14.6721 14.9281 14.8001 14.8001C14.9281 14.6721 15 14.4984 15 14.3174C15 14.1364 14.9281 13.9627 14.8001 13.8347L8.46398 7.5L14.8001 1.16527Z" fill="black"/>
</svg>
