<svg width="19" height="21" viewBox="0 0 19 21" fill="none" xmlns="http://www.w3.org/2000/svg">
<path d="M2.02625 16.8326L2.02635 16.8325L7.60649 15.3294L7.6065 15.3295L7.60879 15.3288C7.70686 15.2998 7.79783 15.2507 7.87432 15.1754L16.8693 6.327C17.6731 5.53626 17.6731 4.24713 16.8693 3.45639L14.877 1.49245L14.8769 1.49238C14.074 0.70254 12.7664 0.70254 11.9635 1.49238L2.96857 10.3408C2.89204 10.4161 2.84181 10.5059 2.8122 10.603L2.81217 10.603L2.81151 10.6054L1.28351 16.0988L1.2835 16.0988L1.28322 16.0999C1.22783 16.3079 1.28327 16.528 1.44057 16.6827C1.55352 16.7938 1.71018 16.8526 1.86526 16.8526C1.91839 16.8526 1.96959 16.8478 2.02625 16.8326ZM7.45385 13.9009L4.26187 10.7609L10.6069 4.51917L13.7989 7.65917L7.45385 13.9009ZM12.8213 2.34084C13.1539 2.01372 13.6908 2.01372 14.0233 2.34084L16.0157 4.3007C16.3473 4.62692 16.3473 5.15232 16.0157 5.47854L14.6591 6.81301L11.4671 3.67301L12.8213 2.34084ZM2.73057 15.402L3.70572 11.9061L6.28429 14.4427L2.73057 15.402Z" fill="#9E9B9B" stroke="#9E9B9B" stroke-width="0.2"/>
<path d="M18.0612 19.4886H1.50652C1.17426 19.4886 0.9 19.7561 0.9 20.0869C0.9 20.4177 1.17426 20.6852 1.50652 20.6852H18.0612C18.3935 20.6852 18.6678 20.4177 18.6678 20.0869C18.6678 19.7561 18.3935 19.4886 18.0612 19.4886Z" fill="#9E9B9B" stroke="#9E9B9B" stroke-width="0.2"/>
</svg>
