<svg xmlns="http://www.w3.org/2000/svg" width="48" height="48" viewBox="0 0 48 48">
  <g id="Library_Setup_Grey_48_" data-name="Library Setup(Grey 48)" transform="translate(-13363.015 5108.033)">
    <rect id="Rectangle_2092" data-name="Rectangle 2092" width="48" height="48" transform="translate(13363.015 -5108.033)" fill="none"/>
    <g id="book" transform="translate(13367.366 -5107.634)">
      <path id="Subtraction_17" data-name="Subtraction 17" d="M15.861,41.878H2.753A2.755,2.755,0,0,1,0,39.138v-.08a2.746,2.746,0,0,0,.761.107H14.743a12.939,12.939,0,0,0,1.117,2.711ZM0,39.047H0V2.421A2.413,2.413,0,0,1,2.386,0H25.335a2.412,2.412,0,0,1,2.4,2.418V22.611c-.152-.006-.314-.009-.482-.009a13.014,13.014,0,0,0-13,13c0,.378.016.761.049,1.137H2.407A2.406,2.406,0,0,0,0,39.046ZM6.864,8.886a1,1,0,0,0-1,1v2.6a1,1,0,0,0,1,1H20.877a1,1,0,0,0,1-1v-2.6a1,1,0,0,0-1-1ZM31.733,23.4h0a12.941,12.941,0,0,0-2.2-.593h.237V4.174a6.993,6.993,0,0,0-.48-2.543A6.977,6.977,0,0,1,30.3,2.685a6.83,6.83,0,0,1,1.256,2.653,6.93,6.93,0,0,1,.175,1.525V23.394Z" transform="translate(0 0)" fill="#9b9b9b"/>
      <path id="Path_1979" data-name="Path 1979" d="M224,24h5.037v5.79L226.519,26.9,224,29.79Z" transform="translate(-204.697 -24)" fill="#c6c6c6"/>
      <path id="Path_1981" data-name="Path 1981" d="M310.554,351.672H306.96a7.439,7.439,0,0,0-.329-.784l2.544-2.544a.611.611,0,0,0,0-.862l-2.708-2.709a.611.611,0,0,0-.862,0l-2.567,2.553a7.652,7.652,0,0,0-.784-.329l-.02-3.61a.611.611,0,0,0-.607-.607h-3.833a.611.611,0,0,0-.607.607V347a7.554,7.554,0,0,0-.784.329l-2.544-2.544a.612.612,0,0,0-.862,0l-2.709,2.709a.611.611,0,0,0,0,.862l2.544,2.544a7.682,7.682,0,0,0-.329.784h-3.594a.611.611,0,0,0-.607.607v3.849a.611.611,0,0,0,.607.607h3.582a7.71,7.71,0,0,0,.329.784l-2.544,2.544a.611.611,0,0,0,0,.862l2.709,2.709a.611.611,0,0,0,.862,0l2.571-2.544a7.655,7.655,0,0,0,.784.329v3.6a.611.611,0,0,0,.607.607h3.845a.611.611,0,0,0,.607-.607v-3.588a7.714,7.714,0,0,0,.784-.329l2.548,2.508a.611.611,0,0,0,.862,0l2.708-2.708a.611.611,0,0,0,0-.862l-2.544-2.544a7.551,7.551,0,0,0,.329-.784h3.606a.611.611,0,0,0,.607-.607v-3.833A.611.611,0,0,0,310.554,351.672ZM295.384,354.2a4.313,4.313,0,1,1,4.313,4.313,4.314,4.314,0,0,1-4.313-4.313Z" transform="translate(-271.865 -318.431)" fill="#9b9b9b"/>
      <path id="Path_1982" data-name="Path 1982" d="M417.807,467.94a4.762,4.762,0,1,0,3.366,1.407A4.762,4.762,0,0,0,417.807,467.94Zm2.723,7.484a3.851,3.851,0,1,1,1.129-2.722A3.851,3.851,0,0,1,420.53,475.424Z" transform="translate(-389.958 -436.934)" fill="#9b9b9b"/>
    </g>
  </g>
</svg>
