<svg width="24" height="18" viewBox="0 0 24 18" fill="none" xmlns="http://www.w3.org/2000/svg">
<g clip-path="url(#clip0)">
<path d="M16.706 0.437949C15.8362 2.34418 12.7079 3.3224 9.68849 3.45218V11.7873C12.5545 11.9148 15.8088 12.8346 16.706 14.801C16.9718 15.503 18.039 15.3213 18.039 14.5398V0.699123C18.039 -0.0819539 16.972 -0.264236 16.706 0.437949Z" fill="white"/>
<path d="M1.43994 4.85132H0.692035C0.309847 4.85132 0 5.16117 0 5.54335V9.69556C0 10.0778 0.309847 10.3876 0.692035 10.3876H1.43994C1.42472 10.1882 1.4249 5.04776 1.43994 4.85132Z" fill="white"/>
<path d="M8.5416 13.2125L8.55549 13.1558C7.55808 13.1556 4.5165 13.1568 4.38007 13.1545L4.7547 17.3693C4.78644 17.7263 5.08558 18 5.44401 18H8.16601C8.56887 18 8.88725 17.6566 8.85597 17.2543L8.5416 13.2125Z" fill="white"/>
<path d="M22.9294 6.92743H21.5454C21.1632 6.92743 20.8533 7.23728 20.8533 7.61946C20.8533 8.00165 21.1632 8.3115 21.5454 8.3115H22.9294C23.3116 8.3115 23.6215 8.00165 23.6215 7.61946C23.6215 7.23728 23.3116 6.92743 22.9294 6.92743Z" fill="white"/>
<path d="M20.4612 4.06655L21.6598 3.37451C21.9908 3.18342 22.1042 2.76017 21.9131 2.42919C21.7219 2.09817 21.2987 1.98481 20.9677 2.17591L19.7691 2.86794C19.4381 3.05904 19.3247 3.48228 19.5159 3.81326C19.7075 4.1453 20.1311 4.25709 20.4612 4.06655V4.06655Z" fill="white"/>
<path d="M21.6598 11.8644L20.4612 11.1724C20.1301 10.9811 19.7069 11.0946 19.5159 11.4257C19.3247 11.7566 19.4381 12.1799 19.7691 12.371L20.9677 13.063C21.2973 13.2533 21.7211 13.1421 21.9131 12.8097C22.1042 12.4787 21.9908 12.0555 21.6598 11.8644Z" fill="white"/>
<path d="M8.30442 11.7717V3.46729H4.42902C3.53865 3.46729 2.81428 4.19166 2.81428 5.08203V10.157C2.81428 11.0473 3.53865 11.7717 4.42902 11.7717H8.30442ZM4.86731 6.92746C4.86731 6.54527 5.17716 6.23543 5.55935 6.23543C5.94154 6.23543 6.25138 6.54527 6.25138 6.92746V8.31153C6.25138 8.69372 5.94154 9.00357 5.55935 9.00357C5.17716 9.00357 4.86731 8.69372 4.86731 8.31153V6.92746Z" fill="white"/>
</g>
<defs>
<clipPath id="clip0">
<rect width="23.6215" height="18" fill="white"/>
</clipPath>
</defs>
</svg>
