<svg xmlns="http://www.w3.org/2000/svg" width="92" height="92" viewBox="0 0 92 92">
  <g id="Cahnge_Password" data-name="Cahnge Password" transform="translate(-16493 -2771)">
    <rect id="Rectangle_2122" data-name="Rectangle 2122" width="92" height="92" transform="translate(16493 2771)" fill="none"/>
    <g id="key" transform="translate(16491.021 2772)">
      <path id="Path_2206" data-name="Path 2206" d="M61.767,0a30.419,30.419,0,0,1,0,60.836,29.8,29.8,0,0,1-10.722-1.973l-7.006,7.054a2.2,2.2,0,0,1-1.557.65H37.744v4.768a2.209,2.209,0,0,1-2.2,2.217H33.385v2.172a2.209,2.209,0,0,1-2.2,2.217H25.8V83.37a2.221,2.221,0,0,1-.647,1.567l-4.39,4.414A2.182,2.182,0,0,1,19.208,90H6.181a2.21,2.21,0,0,1-2.2-2.217V71.867A2.228,2.228,0,0,1,4.624,70.3L33.513,41.212A30.468,30.468,0,0,1,61.767,0ZM87.576,30.418a25.809,25.809,0,1,0-49.457,10.43,2.227,2.227,0,0,1-.44,2.438l-.018.02L8.382,72.785V76.79L32.491,52.517a1.975,1.975,0,0,1,2.8,0,2.007,2.007,0,0,1,0,2.822L8.382,82.434v3.132H18.3l3.1-3.117V75.724a2.21,2.21,0,0,1,2.2-2.217h5.383V71.335a2.21,2.21,0,0,1,2.2-2.217h2.158V64.35a2.209,2.209,0,0,1,2.2-2.217h6.028l7.393-7.446.02-.018a2.19,2.19,0,0,1,2.422-.443A25.478,25.478,0,0,0,61.767,56.4,25.927,25.927,0,0,0,87.576,30.418Z" fill="#0a346c"/>
      <path id="Path_2207" data-name="Path 2207" d="M82.512,25.222a25.97,25.97,0,0,1,0,51.939,25.427,25.427,0,0,1-10.347-2.176,2.186,2.186,0,0,0-2.419.443l-.02.018-7.383,7.442h-6.02a2.207,2.207,0,0,0-2.2,2.215v4.765H51.97a2.208,2.208,0,0,0-2.2,2.215v2.171H44.4a2.208,2.208,0,0,0-2.2,2.215v6.722l-3.1,3.115H29.2v-3.13L56.075,76.1a2.007,2.007,0,0,0,0-2.82,1.971,1.971,0,0,0-2.8,0L29.2,97.537v-4L58.439,64.072l.018-.02a2.226,2.226,0,0,0,.44-2.437A26.021,26.021,0,0,1,82.512,25.222ZM99.929,41.94a8.236,8.236,0,1,0-8.234,8.3A8.277,8.277,0,0,0,99.929,41.94Z" transform="translate(-20.764 -20.765)" fill="#57a7dc"/>
      <path id="Path_2208" data-name="Path 2208" d="M348.746,73.143a8.348,8.348,0,1,1-8.348,8.348A8.357,8.357,0,0,1,348.746,73.143Zm3.889,8.348a3.89,3.89,0,1,0-3.889,3.891A3.894,3.894,0,0,0,352.635,81.491Z" transform="translate(-278.041 -60.217)" fill="#1e0478"/>
      <path id="Path_2209" data-name="Path 2209" d="M369.51,98.365a3.891,3.891,0,1,1-3.891,3.891A3.894,3.894,0,0,1,369.51,98.365Z" transform="translate(-298.575 -81.083)" fill="#fff"/>
    </g>
  </g>
</svg>
