<svg xmlns="http://www.w3.org/2000/svg" xmlns:xlink="http://www.w3.org/1999/xlink" width="24" height="24" viewBox="0 0 24 24">
  <defs>
    <clipPath id="clip-path">
      <path id="Path_85" data-name="Path 85" d="M18.555,9.74l6.136-1.248-1.657-1.1-3.179.6-.848,1.023Z" transform="translate(-18.555 -7.524)" fill="#29c24b"/>
    </clipPath>
  </defs>
  <g id="Fees" transform="translate(-0.211 -0.047)">
    <rect id="Rectangle_21" data-name="Rectangle 21" width="24" height="24" transform="translate(0.211 0.047)" fill="none"/>
    <g id="Fees-2" data-name="Fees" transform="translate(1.211 3.047)">
      <g id="note_1" data-name="note 1" transform="translate(0 4.327)">
        <path id="Path_82" data-name="Path 82" d="M2.906,16.375a.156.156,0,0,1-.149-.134L1.028,6.277a.175.175,0,0,1,.024-.123.152.152,0,0,1,.1-.068L19.406,2.45a.153.153,0,0,1,.177.131l1.728,9.963a.175.175,0,0,1-.024.123.151.151,0,0,1-.1.069L2.933,16.373l-.028,0Zm8.261-3.35a3.126,3.126,0,0,1-1.146-.217,3.33,3.33,0,0,1-.992-.607,3.549,3.549,0,0,1-.75-.933,3.778,3.778,0,0,1-.42-1.2,3.842,3.842,0,0,1,.019-1.427,3.759,3.759,0,0,1,.507-1.266,3.482,3.482,0,0,1,.923-.98,3.232,3.232,0,0,1,1.248-.541,3.148,3.148,0,0,1,1.765.156,3.331,3.331,0,0,1,.992.607,3.526,3.526,0,0,1,.75.933,3.757,3.757,0,0,1,.42,1.2,3.844,3.844,0,0,1-.019,1.426,3.753,3.753,0,0,1-.507,1.265,3.483,3.483,0,0,1-.923.98,3.226,3.226,0,0,1-1.247.541,3.146,3.146,0,0,1-.618.062Zm-8.138.854.291,1.679,1.575-.313q-.019-.063-.042-.125a2.121,2.121,0,0,0-1.824-1.241ZM1.784,6.7l.292,1.681A2.266,2.266,0,0,0,3.352,6.7a1.692,1.692,0,0,0,.008-.315L1.784,6.7Zm18.481,3.748a2.266,2.266,0,0,0-1.278,1.68,1.691,1.691,0,0,0-.007.315l1.576-.314ZM17.445,3.578q.019.065.043.128A2.121,2.121,0,0,0,19.31,4.942l-.291-1.678-1.574.314Z" transform="translate(-1.026 -2.448)" fill="#29c24b" fill-rule="evenodd"/>
        <text id="_" data-name="₹" transform="translate(8.643 8.765) rotate(-7)" fill="#29c24b" font-size="6" font-family="SegoeUI, Segoe UI"><tspan x="0" y="0">₹</tspan></text>
      </g>
      <g id="note_2" data-name="note 2" transform="translate(1.712)">
        <path id="Path_84" data-name="Path 84" d="M1.954,8.749,1.373,5.4A.175.175,0,0,1,1.4,5.276a.152.152,0,0,1,.1-.068L19.752,1.573a.153.153,0,0,1,.177.131l1.728,9.963a.175.175,0,0,1-.024.123.151.151,0,0,1-.1.069l-1.747.348-.124-.713,1.238-.246L20.61,9.567a2.5,2.5,0,0,0-1.1,1.069l-.807-4.655a.523.523,0,0,0-.6-.448l-3.928.782a3.506,3.506,0,0,0-.52-.572,3.331,3.331,0,0,0-.992-.607A3.148,3.148,0,0,0,10.9,4.981a3.232,3.232,0,0,0-1.248.541,3.482,3.482,0,0,0-.923.98,3.744,3.744,0,0,0-.44.986L1.954,8.749Zm.175-2.93L2.421,7.5A2.266,2.266,0,0,0,3.7,5.82,1.692,1.692,0,0,0,3.705,5.5l-1.576.315ZM17.791,2.7q.019.065.043.128a2.121,2.121,0,0,0,1.822,1.236l-.291-1.678L17.791,2.7Z" transform="translate(-1.371 -1.57)" fill="#29c24b" fill-rule="evenodd"/>
        <g id="Mask_Group_1" data-name="Mask Group 1" transform="translate(6.776 3.699)" clip-path="url(#clip-path)">
          <text id="_2" data-name="₹" transform="translate(1.824 3.068) rotate(-7)" fill="#29c24b" font-size="4" font-family="SegoeUI, Segoe UI"><tspan x="0" y="0">₹</tspan></text>
        </g>
      </g>
    </g>
  </g>
</svg>
