<svg xmlns="http://www.w3.org/2000/svg" width="22.997" height="18.037" viewBox="0 0 22.997 18.037"><g transform="translate(0 0)"><path d="M.731,69.21A.731.731,0,0,0,0,69.94v5.7a.731.731,0,0,0,1.461,0v-5.7A.731.731,0,0,0,.731,69.21Z" transform="translate(0 -64.949)" fill="#fff"/><path d="M36,25.459H32.957a.731.731,0,0,0-.731.73v.66l-9.783,2.9a.731.731,0,0,0-.523.7v5.7a.73.73,0,0,0,.009.11l0,.02a.733.733,0,0,0,.022.09l2.071,6.613a.73.73,0,0,0,.915.479l3.016-.943a.731.731,0,0,0,.479-.915l-1.026-3.279,4.817,1.429v.66a.731.731,0,0,0,.731.73H36a.731.731,0,0,0,.731-.73V26.189A.73.73,0,0,0,36,25.459ZM26.823,41.344l-1.621.507-1.443-4.608,1.963.582Zm-.308-4.808-.006,0-3.126-.927V31l8.844-2.623V38.23Zm8.752,3.147H33.687V26.92h1.578Z" transform="translate(-19.786 -25.459)" fill="#fff"/><path d="M185.872,132.6l-3.161-1.581a.731.731,0,1,0-.653,1.307l3.161,1.581a.731.731,0,0,0,.653-1.307Z" transform="translate(-163.96 -120.672)" fill="#fff"/><path d="M182.385,52.823a.727.727,0,0,0,.326-.077l3.161-1.581a.73.73,0,1,0-.653-1.307l-3.161,1.581a.731.731,0,0,0,.327,1.384Z" transform="translate(-163.96 -47.412)" fill="#fff"/><path d="M197.38,98.48h-2.639a.73.73,0,0,0,0,1.461h2.639a.73.73,0,1,0,0-1.461Z" transform="translate(-175.113 -91.368)" fill="#fff"/></g></svg>