<svg xmlns="http://www.w3.org/2000/svg" width="22.82" height="14.541" viewBox="0 0 22.82 14.541"><g transform="translate(0 0)"><g transform="translate(0 0)"><path d="M26.735,32.522V26.847a1.115,1.115,0,0,0,.152-.405.735.735,0,0,0-.431-.684l-9.449-4.23a2.837,2.837,0,0,0-2.229,0L5.3,25.758a.735.735,0,0,0-.405.684.659.659,0,0,0,.481.633L8.85,28.266V35.11a.684.684,0,0,0,.3.583.735.735,0,0,0,.659.076,17.328,17.328,0,0,1,12.159,0l.253.051a.836.836,0,0,0,.405-.127.735.735,0,0,0,.3-.583V28.266l2.381-.811v5.066a1.723,1.723,0,0,0,.709,3.318,1.748,1.748,0,0,0,.709-3.318Zm-5.218,1.6a18.544,18.544,0,0,0-11.248,0V28.215a17.125,17.125,0,0,1,11.247,0Zm.76-7.148a18.822,18.822,0,0,0-12.793,0l-1.951-.659,7.8-3.5a1.368,1.368,0,0,1,1.089,0l7.8,3.5Zm3.749,7.448a.317.317,0,1,1,0-.633.317.317,0,0,1,0,.633Z" transform="translate(-4.898 -21.3)" fill="#fff"/></g></g></svg>