<svg xmlns="http://www.w3.org/2000/svg" width="20.996" height="20.996" viewBox="0 0 20.996 20.996"><g transform="translate(-21.999 -115.997)"><path d="M18.707.18a.615.615,0,0,0-.87,0L13.1,4.921H2.346A1.847,1.847,0,0,0,.5,6.766v8.611a1.847,1.847,0,0,0,1.845,1.845H3v3.158a.615.615,0,0,0,1.055.43l3.51-3.588h7.164a1.847,1.847,0,0,0,1.845-1.845V8.4L21.317,3.66a.615.615,0,0,0,0-.87Zm-5.655,10-1.74-1.74,5.22-5.219,1.74,1.74Zm-2.4-.655,1.311,1.311-2.246.936Zm4.688,5.849a.616.616,0,0,1-.615.615H7.308a.615.615,0,0,0-.44.185L4.233,18.872V16.608a.615.615,0,0,0-.615-.615H2.346a.616.616,0,0,1-.615-.615V6.766a.616.616,0,0,1,.615-.615h9.52L10.008,8.009a.629.629,0,0,0-.136.206L8.17,12.3H4.848a.615.615,0,1,0,0,1.23H8.58a.622.622,0,0,0,.242-.049l4.461-1.858a.625.625,0,0,0,.206-.136l1.858-1.858Zm3.8-11.283L17.4,2.355l.87-.87,1.74,1.74Zm0,0" transform="translate(21.498 115.997)" fill="#fff"/><line x2="5.5" transform="translate(26 125.5)" fill="none" stroke="#fff" stroke-linecap="round" stroke-width="1"/></g></svg>