<svg xmlns="http://www.w3.org/2000/svg" width="17.41" height="17.41" viewBox="0 0 17.41 17.41"><path d="M8.7,0A8.705,8.705,0,1,0,17.41,8.7,8.705,8.705,0,0,0,8.7,0Zm1.812,13.491q-.672.265-1.072.4a2.829,2.829,0,0,1-.93.139,1.854,1.854,0,0,1-1.265-.4A1.282,1.282,0,0,1,6.8,12.63a3.659,3.659,0,0,1,.033-.486c.023-.165.059-.351.108-.559L7.5,9.6c.049-.19.092-.371.126-.539a2.389,2.389,0,0,0,.05-.466.718.718,0,0,0-.156-.528.887.887,0,0,0-.6-.148,1.572,1.572,0,0,0-.446.066c-.151.046-.282.088-.39.13l.148-.61q.55-.224,1.054-.384a3.113,3.113,0,0,1,.951-.161,1.819,1.819,0,0,1,1.247.391,1.3,1.3,0,0,1,.438,1.014q0,.129-.03.455a3.043,3.043,0,0,1-.112.6L9.224,11.4c-.046.158-.086.34-.123.542a2.868,2.868,0,0,0-.054.461.663.663,0,0,0,.176.536.986.986,0,0,0,.609.143,1.768,1.768,0,0,0,.461-.071,2.623,2.623,0,0,0,.373-.125Zm-.1-8.016a1.331,1.331,0,0,1-.94.363,1.345,1.345,0,0,1-.943-.363A1.157,1.157,0,0,1,8.142,4.6a1.169,1.169,0,0,1,.393-.881,1.336,1.336,0,0,1,.943-.366,1.321,1.321,0,0,1,.94.366,1.187,1.187,0,0,1,0,1.761Z" fill="#fff"/></svg>