<svg xmlns="http://www.w3.org/2000/svg" width="15.729" height="15.603" viewBox="0 0 15.729 15.603"><g transform="translate(0.319 0.308)"><g transform="translate(0.024 0)"><g transform="translate(0 0)"><path d="M14.626,14.163H13.3v-6.3a1.322,1.322,0,0,0,1.3-2.251L8.406.32a1.315,1.315,0,0,0-1.72,0L.486,5.608a1.322,1.322,0,0,0,1.3,2.25v6.3H.465a.441.441,0,1,0,0,.881H14.626a.441.441,0,1,0,0-.881ZM1.634,6.946a.441.441,0,0,1-.575-.668L7.258.989a.439.439,0,0,1,.575,0l6.2,5.288a.441.441,0,1,1-.575.668l-5.625-4.8C7.667,2.009,1.8,6.8,1.634,6.946Zm10.789,7.216H7.1c.011-.03-3.483,0-3.526,0H2.668V7.222L7.545,3.064l4.877,4.159v6.94Z" transform="translate(-0.024 0)" fill="#fff" stroke="#fff" stroke-width="0.5"/></g></g></g></svg>