<svg xmlns="http://www.w3.org/2000/svg" width="20.214" height="14.199" viewBox="0 0 20.214 14.199"><g transform="translate(0 0)"><g transform="translate(0 0)"><path d="M16.8,76.168H3.415A3.419,3.419,0,0,0,0,79.583v9.928a.858.858,0,0,0,.857.857h18.5a.858.858,0,0,0,.857-.857V79.583A3.419,3.419,0,0,0,16.8,76.168ZM2.823,89.183H1.184V82.7H2.823v6.483Zm0-7.667H1.184V79.583a2.235,2.235,0,0,1,1.639-2.151v4.084Zm1.184-4.164h12.2v4.164H12.37a2.339,2.339,0,0,0-4.526,0H4.007V77.352Zm7.255,4.756a1.155,1.155,0,1,1-1.155-1.155A1.156,1.156,0,0,1,11.262,82.108Zm4.945,7.075H4.007V82.7H7.844a2.339,2.339,0,0,0,4.526,0h3.837Zm2.823,0H17.391V82.7H19.03Zm0-7.667H17.391V77.432a2.235,2.235,0,0,1,1.639,2.151Z" transform="translate(0 -76.168)" fill="#fff"/></g></g></svg>