<svg xmlns="http://www.w3.org/2000/svg" width="18.95" height="18.949" viewBox="0 0 18.95 18.949"><g transform="translate(0 0)"><path d="M17.84,10.132V8.371a.555.555,0,0,0-.555-.555,16.748,16.748,0,0,0-3.226.294A5.013,5.013,0,0,0,11.974,6.9a3.886,3.886,0,1,0-5,0A5.013,5.013,0,0,0,4.892,8.11a16.751,16.751,0,0,0-3.226-.294.555.555,0,0,0-.555.555v1.761A1.668,1.668,0,0,0,0,11.7v1.11a1.668,1.668,0,0,0,1.11,1.57v1.761a.555.555,0,0,0,.555.555,12.92,12.92,0,0,1,7.5,2.164.557.557,0,0,0,.616,0,12.92,12.92,0,0,1,7.5-2.164.555.555,0,0,0,.555-.555V14.382a1.668,1.668,0,0,0,1.11-1.57V11.7A1.668,1.668,0,0,0,17.84,10.132ZM6.7,3.929A2.776,2.776,0,1,1,9.475,6.705,2.8,2.8,0,0,1,6.7,3.929ZM1.665,13.367a.556.556,0,0,1-.555-.555V11.7a.555.555,0,0,1,1.11,0v1.11A.556.556,0,0,1,1.665,13.367ZM8.92,17.4a13.891,13.891,0,0,0-6.7-1.809V14.382a1.668,1.668,0,0,0,1.11-1.57V11.7a1.668,1.668,0,0,0-1.11-1.57v-1.2a12.549,12.549,0,0,1,6.7,1.958ZM9.475,9.93a13.194,13.194,0,0,0-3.23-1.485,3.894,3.894,0,0,1,2.12-.63h2.221a3.894,3.894,0,0,1,2.12.63A13.194,13.194,0,0,0,9.475,9.93ZM16.729,15.6a13.892,13.892,0,0,0-6.7,1.809V10.893a12.548,12.548,0,0,1,6.7-1.959v1.2a1.668,1.668,0,0,0-1.11,1.57v1.11a1.668,1.668,0,0,0,1.11,1.57Zm1.11-2.784a.555.555,0,0,1-1.11,0V11.7a.555.555,0,0,1,1.11,0Z" transform="translate(0 -0.006)" fill="#fff"/></g></svg>