<svg xmlns="http://www.w3.org/2000/svg" width="15.573" height="20.476" viewBox="0 0 15.573 20.476"><g transform="translate(-41.895)"><path d="M108.657,10.014c2.276,0,4.122-2.242,4.122-5.007S112.173,0,108.657,0s-4.122,2.242-4.122,5.007S106.381,10.014,108.657,10.014Z" transform="translate(-58.975)" fill="#fff"/><path d="M41.9,300.459c0-.169,0-.048,0,0Z" transform="translate(0 -282.8)" fill="#fff"/><path d="M308.085,301.639c0-.046,0-.32,0,0Z" transform="translate(-250.618 -283.849)" fill="#fff"/><path d="M57.471,184.8c-.076-4.817-.705-6.19-5.52-7.058a3.382,3.382,0,0,1-4.514,0c-4.762.859-5.429,2.212-5.517,6.9-.007.383-.011.4-.012.359,0,.083,0,.237,0,.506,0,0,1.146,2.311,7.785,2.311s7.785-2.311,7.785-2.311c0-.173,0-.293,0-.374A3.1,3.1,0,0,1,57.471,184.8Z" transform="translate(-0.012 -167.342)" fill="#fff"/></g></svg>