<svg xmlns="http://www.w3.org/2000/svg" width="16.325" height="19.012" viewBox="0 0 16.325 19.012"><g transform="translate(0 0)"><path d="M3.785,337.465H.557a.557.557,0,0,0-.557.557v5.367a.557.557,0,0,0,.557.557H3.785a.557.557,0,0,0,.557-.557v-5.367A.557.557,0,0,0,3.785,337.465Zm-.557,5.367H1.114v-4.253H3.228v4.253Zm0,0" transform="translate(0 -324.934)" fill="#fff"/><path d="M165.133,256.676H161.9a.557.557,0,0,0-.557.557V265.6a.557.557,0,0,0,.557.557h3.229a.557.557,0,0,0,.557-.557v-8.367A.557.557,0,0,0,165.133,256.676Zm-.557,8.367h-2.115V257.79h2.115Zm0,0" transform="translate(-155.356 -247.145)" fill="#fff"/><path d="M326.481,134.66h-3.229a.557.557,0,0,0-.557.557v12.9a.557.557,0,0,0,.557.557h3.229a.557.557,0,0,0,.557-.557v-12.9A.557.557,0,0,0,326.481,134.66Zm-.557,12.9H323.81V135.774h2.115Zm0,0" transform="translate(-310.713 -129.66)" fill="#fff"/><path d="M1.534,7a.555.555,0,0,0,.259-.064L7.61,3.88l2.316,1.2a.557.557,0,0,0,.528-.008l5.159-2.879-.2.524a.557.557,0,1,0,1.042.395l.737-1.946a.578.578,0,0,0,.034-.24.555.555,0,0,0-.516-.517l-2-.4A.557.557,0,0,0,14.5,1.1l.576.115-4.9,2.735-2.308-1.2a.557.557,0,0,0-.516,0L1.274,5.953A.557.557,0,0,0,1.534,7Zm0,0" transform="translate(-0.94 0)" fill="#fff"/></g></svg>