<svg xmlns="http://www.w3.org/2000/svg" width="19.589" height="20.9" viewBox="0 0 19.589 20.9"><g transform="translate(0 0)"><path d="M187.512,287.317a.612.612,0,0,0-.837.223,1.356,1.356,0,0,1-2.348,0,.612.612,0,0,0-1.06.613,2.581,2.581,0,0,0,4.468,0,.612.612,0,0,0-.223-.837Zm0,0" transform="translate(-175.706 -275.509)" fill="#fff"/><path d="M177.78,235.975a.613.613,0,1,0-.433.179A.617.617,0,0,0,177.78,235.975Zm0,0" transform="translate(-169.52 -225.339)" fill="#fff"/><path d="M273.745,234.93a.613.613,0,1,0,.433.18A.616.616,0,0,0,273.745,234.93Zm0,0" transform="translate(-261.983 -225.34)" fill="#fff"/><path d="M19.084,1.649,9.9.009a.61.61,0,0,0-.215,0L.5,1.649a.612.612,0,0,0,0,1.206l2.775.5v7.1a6.522,6.522,0,0,0,3.578,5.814q-.268.1-.53.216l-.023.01a8.4,8.4,0,0,0-.812.42,8.53,8.53,0,0,0-3.046,3.071.612.612,0,0,0,.53.919H16.611a.612.612,0,0,0,.53-.919A8.53,8.53,0,0,0,14.1,16.911a8.423,8.423,0,0,0-.814-.422l-.02-.009q-.261-.117-.53-.216a6.522,6.522,0,0,0,3.578-5.814V3.35l2.055-.367V10.45a.612.612,0,0,0,1.225,0v-8.2a.612.612,0,0,0-.5-.6Zm-9.29-.415,5.7,1.018-5.7,1.018-5.7-1.018ZM9.182,18.81,7.661,17.289a7.226,7.226,0,0,1,1.521-.3Zm1.225-1.818a7.225,7.225,0,0,1,1.521.3L10.406,18.81Zm-3.972.8,1.882,1.881H4.138a7.294,7.294,0,0,1,2.3-1.881Zm9.016,1.881H11.272l1.881-1.882a7.3,7.3,0,0,1,2.3,1.882ZM9.794,15.741A5.3,5.3,0,0,1,4.5,10.45V7.783H15.084V10.45a5.3,5.3,0,0,1-5.291,5.29Zm5.291-9.182H4.5V3.569l5.183.926a.61.61,0,0,0,.215,0l5.183-.926Zm0,0" transform="translate(0.001 0)" fill="#fff"/></g></svg>