<svg xmlns="http://www.w3.org/2000/svg" xmlns:xlink="http://www.w3.org/1999/xlink" width="256" height="256" viewBox="0 0 256 256">
  <defs>
    <clipPath id="clip-path">
      <rect id="Rectangle_1515" data-name="Rectangle 1515" width="256" height="256" fill="none"/>
    </clipPath>
  </defs>
  <g id="Course_Planner" data-name="Course Planner" clip-path="url(#clip-path)">
    <path id="Path_1596" data-name="Path 1596" d="M230.945,194.5a4.162,4.162,0,0,1-1.768-.4l-70.5-33.178a4.151,4.151,0,0,1,0-7.509l70.5-33.174a4.161,4.161,0,0,1,3.536,0l70.5,33.178a4.151,4.151,0,0,1,0,7.509l-70.5,33.178a4.159,4.159,0,0,1-1.768.4Zm-60.757-37.325,60.757,28.6,60.757-28.6-60.757-28.6Zm0,0" transform="translate(-102.945 -78.938)" fill="#56a7dd"/>
    <path id="Path_1597" data-name="Path 1597" d="M270.964,310.521a4.152,4.152,0,0,1-1.854-.434L219.344,285.2a4.151,4.151,0,0,1-2.294-3.714V249.774a4.147,4.147,0,0,1,5.912-3.755l48,22.6,48-22.59a4.151,4.151,0,0,1,5.912,3.755v31.7a4.151,4.151,0,0,1-2.294,3.714l-49.766,24.883A4.152,4.152,0,0,1,270.964,310.521Zm-45.619-31.594,45.619,22.8,45.619-22.812v-22.61l-43.851,20.637a4.138,4.138,0,0,1-3.536,0l-43.851-20.637Zm0,0" transform="translate(-142.964 -161.785)" fill="#56a7dd"/>
    <path id="Path_1598" data-name="Path 1598" d="M437.5,225.344H367a4.147,4.147,0,1,1,0-8.294H437.5a4.147,4.147,0,1,1,0,8.294Zm0,0" transform="translate(-238.998 -142.964)" fill="#56a7dd"/>
    <path id="Path_1599" data-name="Path 1599" d="M573.551,262.669a4.15,4.15,0,0,1-4.15-4.147V221.2a4.147,4.147,0,1,1,8.294,0v37.325A4.148,4.148,0,0,1,573.551,262.669Zm0,0" transform="translate(-375.045 -142.964)" fill="#56a7dd"/>
    <path id="Path_1600" data-name="Path 1600" d="M367,217.624a4.148,4.148,0,0,1-4.147-4.144V196.887a4.147,4.147,0,0,1,8.294,0V213.48A4.147,4.147,0,0,1,367,217.624Zm0,0" transform="translate(-238.998 -126.952)" fill="#56a7dd"/>
    <path id="Path_1601" data-name="Path 1601" d="M549.244,347.132a4.143,4.143,0,0,1-3.444-6.447l8.294-12.445a4.147,4.147,0,1,1,6.9,4.6L552.7,345.285a4.134,4.134,0,0,1-3.454,1.847Zm0,0" transform="translate(-359.039 -214.984)" fill="#56a7dd"/>
    <path id="Path_1602" data-name="Path 1602" d="M581.848,347.132a4.144,4.144,0,0,1-3.455-1.847L570.1,332.844a4.147,4.147,0,0,1,6.9-4.6l8.307,12.445a4.147,4.147,0,0,1-3.451,6.448Zm0,0" transform="translate(-375.047 -214.985)" fill="#56a7dd"/>
    <path id="Path_1603" data-name="Path 1603" d="M367,334.986a4.151,4.151,0,0,1-4.147-4.147V318.4a4.147,4.147,0,0,1,8.295,0v12.441A4.151,4.151,0,0,1,367,334.986Zm0,0" transform="translate(-238.997 -206.986)" fill="#56a7dd"/>
    <path id="Path_1604" data-name="Path 1604" d="M255.182,180.24H14.637a4.154,4.154,0,0,1-4.147-4.151V39.236a16.613,16.613,0,0,1,16.592-16.6H242.737a16.613,16.613,0,0,1,16.592,16.6V176.09a4.154,4.154,0,0,1-4.147,4.151Zm-236.394-8.3H251.031V39.236a8.3,8.3,0,0,0-8.294-8.3H27.082a8.3,8.3,0,0,0-8.294,8.3Zm0,0" transform="translate(-6.909 -14.912)" fill="#1f386a"/>
    <path id="Path_1605" data-name="Path 1605" d="M242.737,501.525H27.082a16.616,16.616,0,0,1-16.592-16.6V464.2a4.15,4.15,0,0,1,4.147-4.147H255.182a4.15,4.15,0,0,1,4.147,4.147V484.93A16.616,16.616,0,0,1,242.737,501.525ZM18.788,468.348V484.93a8.3,8.3,0,0,0,8.294,8.3H242.737a8.3,8.3,0,0,0,8.294-8.3V468.348Zm0,0" transform="translate(-6.909 -303.02)" fill="#1f386a"/>
    <path id="Path_1606" data-name="Path 1606" d="M355.431,516.995H330.547a4.147,4.147,0,1,1,0-8.294h24.884a4.147,4.147,0,0,1,0,8.294Zm0,0" transform="translate(-214.989 -335.064)" fill="#56a7dd"/>
    <path id="Path_1607" data-name="Path 1607" d="M270.611,212.252H63.244A4.151,4.151,0,0,1,59.1,208.1V75.387a4.147,4.147,0,0,1,4.144-4.147H270.611a4.147,4.147,0,0,1,4.144,4.147V208.1A4.151,4.151,0,0,1,270.611,212.252Zm-203.22-8.3H266.463V79.538H67.391Zm0,0" transform="translate(-38.927 -46.923)" fill="#1f386a"/>
    <path id="Path_1608" data-name="Path 1608" d="M300.88,679.334H193.035a12.444,12.444,0,1,1,0-24.889l107.844,0a12.444,12.444,0,1,1,0,24.889ZM193.052,662.745a4.147,4.147,0,1,0,0,8.294H300.88a4.147,4.147,0,1,0,0-8.294Zm0,0" transform="translate(-118.949 -431.062)" fill="#1f386a"/>
    <path id="Path_1609" data-name="Path 1609" d="M324.808,598.725H233.57a4.15,4.15,0,0,1,0-8.3c13.759,0,20.736-9.766,20.736-29.031a4.15,4.15,0,0,1,4.147-4.147h41.472a4.15,4.15,0,0,1,4.147,4.147c0,19.265,6.977,29.031,20.736,29.031a4.15,4.15,0,0,1,0,8.3Zm-71.038-8.3h50.859c-5.12-5.656-8.117-14.077-8.718-24.88H262.488C261.884,576.351,258.88,584.771,253.77,590.428Zm0,0" transform="translate(-151.189 -367.042)" fill="#1f386a"/>
  </g>
</svg>
