<svg xmlns="http://www.w3.org/2000/svg" width="38" height="38" viewBox="0 0 38 38">
  <g id="Add" transform="translate(-1364 -552)">
    <rect id="Rectangle_2009" data-name="Rectangle 2009" width="38" height="38" transform="translate(1364 552)" fill="none"/>
    <g id="follow" transform="translate(1338.206 554)">
      <path id="Path_1726" data-name="Path 1726" d="M34.659,8.019l.157.207c0-.015-1.6-7.568,4.79-7.688s5.454,4.2,5.454,4.2-.323-3.416,2.632-2.27,1.99,6.094,1.99,6.094A8,8,0,0,0,44.9,5.425,5.709,5.709,0,0,0,43,5.184c-3.954.543-4.312.516-4.312.516" transform="translate(-0.196)" fill="#57a7dc"/>
      <path id="Path_1720" data-name="Path 1720" d="M196.491,173.476a.508.508,0,0,0-.508.508v2.1a.926.926,0,0,0,.93.92h.907a.508.508,0,0,0,0-1.015H197v-2.005A.508.508,0,0,0,196.491,173.476Z" transform="translate(-155.188 -161.981)" fill="#0a346c"/>
      <path id="Path_1721" data-name="Path 1721" d="M146.027,160.239v1.491a.508.508,0,1,0,1.015,0v-1.491a.508.508,0,1,0-1.015,0Z" transform="translate(-108.531 -149.14)" fill="#57a7dc"/>
      <path id="Path_1722" data-name="Path 1722" d="M264.851,160.239v1.491a.508.508,0,1,0,1.015,0v-1.491a.508.508,0,1,0-1.015,0Z" transform="translate(-219.481 -149.14)" fill="#57a7dc"/>
      <path id="Path_1723" data-name="Path 1723" d="M58.454,23.209a.5.5,0,1,0-.8.6A5.7,5.7,0,0,1,58.8,27.245a5.768,5.768,0,1,1-2.729-4.894.5.5,0,0,0,.524-.847,6.778,6.778,0,0,0-8.474,1.088H44.491V21.354a7,7,0,0,0,2.522-1.184c.172-.128.34-.265.5-.408a.5.5,0,0,0-.663-.742c-.137.122-.281.24-.429.35a6.04,6.04,0,0,1-3.626,1.19H41.082a5.937,5.937,0,0,1-6-5.858V10.485A4.222,4.222,0,0,1,37.009,6.7a9.174,9.174,0,0,1,4.93-1.153A9.173,9.173,0,0,1,46.868,6.7,4.222,4.222,0,0,1,48.8,10.485V14.7a5.686,5.686,0,0,1-.624,2.6.5.5,0,1,0,.886.453,6.693,6.693,0,0,0,.581-1.627H50.3a1.83,1.83,0,0,0,1.849-1.807V12.741A1.83,1.83,0,0,0,50.3,10.934H49.79V5.345a3.575,3.575,0,0,0-5.013-3.267A4.165,4.165,0,0,0,40.826,0H39.183a5.1,5.1,0,0,0-5.1,5.086v5.848h-.505a1.83,1.83,0,0,0-1.849,1.807v1.584a1.83,1.83,0,0,0,1.849,1.807h.659a6.942,6.942,0,0,0,5.146,5.22v1.24h-5.84a3.721,3.721,0,0,0-3.753,3.679v4.7a.924.924,0,0,0,.926.921h3.332a.5.5,0,0,0,0-1H30.789V26.27a2.724,2.724,0,0,1,2.758-2.682h4.521a3.985,3.985,0,0,0,7.742,0h1.524a6.73,6.73,0,0,0,0,7.309H36.439a.5.5,0,0,0,0,1H48.115a6.77,6.77,0,0,0,11.679-4.648A6.69,6.69,0,0,0,58.454,23.209ZM49.79,14.7V11.93H50.3a.834.834,0,0,1,.854.81v1.584a.834.834,0,0,1-.854.81h-.519Q49.79,14.919,49.79,14.7ZM46.215,2.772A2.58,2.58,0,0,1,48.8,5.345V7.156a5.228,5.228,0,0,0-1.386-1.29,7.4,7.4,0,0,0-2.091-.908V4.494a5.824,5.824,0,0,0-.181-1.486,2.57,2.57,0,0,1,1.077-.236ZM35.082,5.086A4.1,4.1,0,0,1,39.183,1h1.643a3.155,3.155,0,0,1,3.5,3.5v.245a14.289,14.289,0,0,0-2.385-.186,9.994,9.994,0,0,0-5.471,1.313,5.228,5.228,0,0,0-1.386,1.29V5.086Zm-1.5,10.049a.834.834,0,0,1-.854-.81V12.741a.834.834,0,0,1,.854-.81h.505V14.7c0,.146.005.291.014.434h-.519Zm8.357,10.5A2.963,2.963,0,0,1,39.1,23.588h.787a.5.5,0,0,0,.5-.5V21.521q.346.034.7.034H42.8c.236,0,.469-.013.7-.035V23.09a.5.5,0,0,0,.5.5h.787A2.963,2.963,0,0,1,41.939,25.632Z" fill="#0a346c"/>
      <path id="Path_1724" data-name="Path 1724" d="M324.258,351.841v-1.729a.735.735,0,0,0-.735-.734h-1.885a.735.735,0,0,0-.735.734v1.729h-1.764a.735.735,0,0,0-.735.734v1.851a.735.735,0,0,0,.735.734H320.9v1.729a.735.735,0,0,0,.735.734h1.885a.735.735,0,0,0,.735-.734v-1.729h1.764a.735.735,0,0,0,.735-.734v-1.851a.735.735,0,0,0-.735-.734Zm1.484,2.3h-1.992a.508.508,0,0,0-.508.508v1.955h-1.324v-1.955a.508.508,0,0,0-.508-.508h-1.992v-1.288h1.992a.508.508,0,0,0,.508-.508v-1.955h1.324v1.955a.508.508,0,0,0,.508.508h1.992Z" transform="translate(-269.697 -326.386)" fill="#57a7dc"/>
      <path id="Path_1725" data-name="Path 1725" d="M168.151,240.946a.508.508,0,0,0-.924.422,3.356,3.356,0,0,0,6.1,0,.508.508,0,0,0-.924-.422,2.341,2.341,0,0,1-4.255,0Z" transform="translate(-128.325 -224.694)" fill="#57a7dc"/>
    </g>
  </g>
</svg>
