<svg xmlns="http://www.w3.org/2000/svg" width="36" height="36" viewBox="0 0 36 36">
  <g id="campaign" transform="translate(8.447 12.448)">
    <rect id="bg" width="36" height="36" transform="translate(-8.447 -12.448)" fill="none"/>
    <g id="Speaker" transform="translate(-10.214 -9.707)">
      <g id="Speaker-2" data-name="Speaker" transform="translate(2.767 4.259)">
        <path id="Path_1700" data-name="Path 1700" d="M125.058,197.826a1.159,1.159,0,0,1-1.163-1.154V191.6l-.192,0a1.16,1.16,0,0,0-1.163,1.154v5.26a1.159,1.159,0,0,0,1.163,1.154c.6,0,3.409.025,4.01.071v-1.41C127.564,197.827,125.208,197.826,125.058,197.826Z" transform="translate(-121.691 -185.841)" fill="#57a7dc"/>
        <path id="Path_1701" data-name="Path 1701" d="M220.634,193.126v-6.818q-.659.128-1.325.218v7.934c2.474,1.034,10.825,4.853,10.825,4.853v-1.958S223.1,194.058,220.634,193.126Z" transform="translate(-210.125 -181.186)" fill="#57a7dc"/>
        <path id="Path_1702" data-name="Path 1702" d="M130.186,125.722a.482.482,0,0,0-.46-.051l-11.333,4.653h-5.616A2.818,2.818,0,0,0,110,133.176v4.162a2.861,2.861,0,0,0,1.585,2.575l1.522,5.669a2.715,2.715,0,0,0,3.348,1.952,2.8,2.8,0,0,0,1.9-3.437l-1.049-3.907h1.085l11.333,4.653a.482.482,0,0,0,.46-.051.51.51,0,0,0,.217-.419v-5.649h.078a3.614,3.614,0,0,0,0-7.226H130.4v-5.356a.51.51,0,0,0-.217-.419Zm-12.191,13.455h-.841v-7.839h.841Zm-7.009-1.839v-4.162a1.817,1.817,0,0,1,1.791-1.839h3.39v7.839h-3.39A1.817,1.817,0,0,1,110.986,137.338Zm5.207,9.219a1.731,1.731,0,0,1-2.136-1.245l-1.376-5.126.1,0h3.508l1.121,4.177A1.791,1.791,0,0,1,116.193,146.557Zm13.223-2.933-10.435-4.285v-8.167l10.435-4.284Zm1.064-11.115a2.6,2.6,0,0,1,0,5.2H130.4v-5.2Z" transform="translate(-110 -125.635)" fill="#0a346c" stroke="#0a346c" stroke-width="1"/>
      </g>
      <g id="Arrows" transform="translate(28.768 4.259)">
        <path id="Path_1706" data-name="Path 1706" d="M436.784,225.635l-2.775-2.54a.656.656,0,0,0-.87,0,.53.53,0,0,0,0,.8l1.627,1.489H429.58a.565.565,0,1,0,0,1.126h5.3a.673.673,0,0,0,.092-.007l-1.831,1.675a.53.53,0,0,0,0,.8.656.656,0,0,0,.87,0l2.775-2.54a.53.53,0,0,0,0-.8Z" transform="translate(-428.964 -216.126)" fill="#57a7dc"/>
        <path id="Path_1708" data-name="Path 1708" d="M377.949,380.875a.563.563,0,0,0,.563.563H382.1a.563.563,0,0,0,.563-.563v-3.592a.563.563,0,0,0-1.126,0v2.105l-3.357-3.357a.563.563,0,1,0-.8.8l3.429,3.429a.551.551,0,0,0,.067.055h-2.372a.563.563,0,0,0-.563.563Z" transform="translate(-377.223 -361.438)" fill="#57a7dc"/>
        <path id="Path_1709" data-name="Path 1709" d="M376.72,77.322a.563.563,0,0,0,.563.563h2.106l-3.357,3.356a.563.563,0,1,0,.8.8l3.429-3.429a.564.564,0,0,0,.055-.067v2.372a.563.563,0,0,0,1.126,0V77.322a.563.563,0,0,0-.563-.563h-3.592A.563.563,0,0,0,376.72,77.322Z" transform="translate(-375.867 -76.759)" fill="#57a7dc"/>
      </g>
    </g>
  </g>
</svg>
