<svg width="24" height="23" viewBox="0 0 24 23" fill="none" xmlns="http://www.w3.org/2000/svg">
<path d="M21.8311 2.4375H19.9233V1.625C19.9233 1.19402 19.7625 0.780698 19.4763 0.475951C19.19 0.171205 18.8018 0 18.397 0C17.9922 0 17.604 0.171205 17.3178 0.475951C17.0316 0.780698 16.8708 1.19402 16.8708 1.625V2.4375H13.8183V1.625C13.8183 1.19402 13.6575 0.780698 13.3713 0.475951C13.085 0.171205 12.6968 0 12.2921 0C11.8873 0 11.4991 0.171205 11.2128 0.475951C10.9266 0.780698 10.7658 1.19402 10.7658 1.625V2.4375H7.71332V1.625C7.71332 1.19402 7.55252 0.780698 7.26629 0.475951C6.98006 0.171205 6.59186 0 6.18707 0C5.78229 0 5.39408 0.171205 5.10785 0.475951C4.82163 0.780698 4.66083 1.19402 4.66083 1.625V2.4375H2.75302C2.24704 2.4375 1.76178 2.65151 1.404 3.03244C1.04622 3.41337 0.845215 3.93003 0.845215 4.46875V20.7188C0.845215 21.2575 1.04622 21.7741 1.404 22.1551C1.76178 22.536 2.24704 22.75 2.75302 22.75H13.4367C13.5379 22.75 13.635 22.7072 13.7065 22.631C13.7781 22.5548 13.8183 22.4515 13.8183 22.3438C13.8183 22.236 13.7781 22.1327 13.7065 22.0565C13.635 21.9803 13.5379 21.9375 13.4367 21.9375H2.75302C2.44971 21.9365 2.15908 21.8078 1.94461 21.5795C1.73013 21.3511 1.60924 21.0417 1.60834 20.7188V8.125H22.9758V15.0312C22.9758 15.139 23.016 15.2423 23.0875 15.3185C23.1591 15.3947 23.2561 15.4375 23.3573 15.4375C23.4585 15.4375 23.5556 15.3947 23.6271 15.3185C23.6987 15.2423 23.7389 15.139 23.7389 15.0312V4.46875C23.7389 3.93003 23.5379 3.41337 23.1801 3.03244C22.8223 2.65151 22.3371 2.4375 21.8311 2.4375ZM17.6339 1.625C17.6339 1.40951 17.7143 1.20285 17.8574 1.05048C18.0005 0.898102 18.1946 0.8125 18.397 0.8125C18.5994 0.8125 18.7935 0.898102 18.9366 1.05048C19.0798 1.20285 19.1602 1.40951 19.1602 1.625V4.0625C19.1602 4.27799 19.0798 4.48465 18.9366 4.63702C18.7935 4.7894 18.5994 4.875 18.397 4.875C18.1946 4.875 18.0005 4.7894 17.8574 4.63702C17.7143 4.48465 17.6339 4.27799 17.6339 4.0625V1.625ZM11.5289 1.625C11.5289 1.40951 11.6093 1.20285 11.7524 1.05048C11.8956 0.898102 12.0897 0.8125 12.2921 0.8125C12.4944 0.8125 12.6885 0.898102 12.8317 1.05048C12.9748 1.20285 13.0552 1.40951 13.0552 1.625V4.0625C13.0552 4.27799 12.9748 4.48465 12.8317 4.63702C12.6885 4.7894 12.4944 4.875 12.2921 4.875C12.0897 4.875 11.8956 4.7894 11.7524 4.63702C11.6093 4.48465 11.5289 4.27799 11.5289 4.0625V1.625ZM5.42395 1.625C5.42395 1.40951 5.50435 1.20285 5.64746 1.05048C5.79058 0.898102 5.98468 0.8125 6.18707 0.8125C6.38947 0.8125 6.58357 0.898102 6.72668 1.05048C6.86979 1.20285 6.9502 1.40951 6.9502 1.625V4.0625C6.9502 4.27799 6.86979 4.48465 6.72668 4.63702C6.58357 4.7894 6.38947 4.875 6.18707 4.875C5.98468 4.875 5.79058 4.7894 5.64746 4.63702C5.50435 4.48465 5.42395 4.27799 5.42395 4.0625V1.625ZM22.9758 7.3125H1.60834V4.46875C1.60924 4.14581 1.73013 3.83638 1.94461 3.60803C2.15908 3.37968 2.44971 3.25096 2.75302 3.25H4.66083V4.0625C4.66083 4.49348 4.82163 4.9068 5.10785 5.21155C5.39408 5.5163 5.78229 5.6875 6.18707 5.6875C6.59186 5.6875 6.98006 5.5163 7.26629 5.21155C7.55252 4.9068 7.71332 4.49348 7.71332 4.0625V3.25H10.7658V4.0625C10.7658 4.49348 10.9266 4.9068 11.2128 5.21155C11.4991 5.5163 11.8873 5.6875 12.2921 5.6875C12.6968 5.6875 13.085 5.5163 13.3713 5.21155C13.6575 4.9068 13.8183 4.49348 13.8183 4.0625V3.25H16.8708V4.0625C16.8708 4.49348 17.0316 4.9068 17.3178 5.21155C17.604 5.5163 17.9922 5.6875 18.397 5.6875C18.8018 5.6875 19.19 5.5163 19.4763 5.21155C19.7625 4.9068 19.9233 4.49348 19.9233 4.0625V3.25H21.8311C22.1344 3.25096 22.425 3.37968 22.6395 3.60803C22.854 3.83638 22.9749 4.14581 22.9758 4.46875V7.3125Z" fill="#109CF1"/>
</svg>
